<svg width="156" height="25" viewBox="0 0 156 25" fill="none" xmlns="http://www.w3.org/2000/svg">
<g clip-path="url(#clip0_845_28921)">
<path d="M30.9983 10.5469L32.7831 4.08534e-05H35.4847L37.6127 5.62896L39.8682 4.08534e-05H42.5993L44.1782 10.5469H41.4471L40.6773 4.4816L38.1374 10.5518H37.0489L34.612 4.4816L33.7147 10.5518H30.9983V10.5469ZM51.891 2.32418H48.6401V4.07954H51.7145V6.40367H48.6401V8.21787H51.8861V10.542H45.9041V-0.00976562H51.8861V2.32418H51.891ZM56.3578 4.08534e-05V10.5469H53.6267V4.08534e-05H56.3578ZM58.5692 10.5469V4.08534e-05H61.3003L66.3359 6.4527V4.08534e-05H69.067V10.5469H66.3359L61.3003 4.09425V10.5469H58.5692ZM31.4739 24.7026V14.1557H35.5436C36.2987 14.1557 37.196 14.2636 37.8432 14.9794C38.2109 15.3717 38.4904 16.0189 38.4904 16.9505C38.4904 17.4065 38.4071 17.8086 38.1913 18.2499C37.9658 18.6569 37.7353 18.8971 37.3382 19.0736C37.8873 19.1423 38.4414 19.3924 38.7748 19.7062C39.1965 20.1131 39.4809 20.7947 39.4809 21.638C39.4809 22.6383 39.0984 23.31 38.7062 23.7121C38.1423 24.2956 37.1469 24.7124 35.8476 24.7124H31.4641L31.4739 24.7026ZM34.205 18.3185H34.71C34.9944 18.3185 35.4651 18.2842 35.7495 17.9851C35.926 17.8086 35.9996 17.5291 35.9996 17.284C35.9996 17.0192 35.9064 16.7446 35.7495 16.5779C35.573 16.4014 35.2445 16.2592 34.71 16.2592H34.205V18.3185ZM34.205 22.5697H34.8179C35.573 22.5697 36.2055 22.4961 36.5046 22.1431C36.6272 22.0009 36.7302 21.7606 36.7302 21.4615C36.7302 21.1281 36.6223 20.8633 36.4654 20.7015C36.132 20.3681 35.4504 20.3534 34.7787 20.3534H34.2148V22.5697H34.205ZM43.9477 14.1557V24.7026H41.2166V14.1557H43.9477ZM48.8902 14.1557V22.3833H52.1705V24.7075H46.1591V14.1557H48.8902ZM53.5777 24.7026V14.1557H57.1571C58.2113 14.1557 59.9813 14.2979 61.3346 15.612C62.5653 16.7936 62.8056 18.3185 62.8056 19.461C62.8056 20.8535 62.4575 22.0842 61.4376 23.1139C60.5991 23.9524 59.1968 24.7124 57.4022 24.7124H53.5826V24.7026H53.5777ZM56.3088 22.3784H56.8678C57.5346 22.3784 58.4613 22.3098 59.1674 21.6184C59.5155 21.285 59.9715 20.6182 59.9715 19.4561C59.9715 18.4754 59.6724 17.6419 59.1478 17.1516C58.5005 16.5534 57.6523 16.4847 56.9707 16.4847H56.3039V22.3882V22.3784H56.3088ZM67.2822 14.1557V20.3975C67.2822 20.8388 67.297 21.5204 67.8216 22.0303C68.1354 22.3294 68.6453 22.5402 69.1161 22.5402C69.5917 22.5402 70.082 22.349 70.3762 22.0842C71.0087 21.5253 70.9891 20.7506 70.9891 20.1671V14.1557H73.7202V20.2161C73.7202 21.3242 73.6712 22.4814 72.5434 23.6287C71.6608 24.526 70.5576 24.9428 69.0719 24.9428C67.4097 24.9428 66.2329 24.3789 65.5857 23.6778C64.6737 22.6775 64.5658 21.3389 64.5658 20.2161V14.1557H67.297H67.2822ZM75.9267 24.7026V14.1557H78.6578L83.6934 20.6084V14.1557H86.4245V24.7026H83.6934L78.6578 18.2499V24.7026H75.9267ZM93.6764 18.7255H99.1092C99.1092 20.8143 98.6875 22.2951 97.4225 23.4718C96.3192 24.4966 95.0542 24.8055 93.7156 24.8055C91.823 24.8055 90.5285 24.1044 89.6802 23.2414C88.8908 22.452 88.17 21.1673 88.17 19.4267C88.17 17.686 88.832 16.372 89.7489 15.4698C90.6119 14.6019 91.975 13.9203 93.8333 13.9203C94.8139 13.9203 95.8681 14.1459 96.6723 14.6264C97.496 15.1363 98.1677 15.965 98.5502 16.7936L95.9515 17.8674C95.7603 17.3771 95.4612 17.0241 95.1964 16.8083C94.7404 16.4259 94.2501 16.2837 93.7254 16.2837C93.0782 16.2837 92.4113 16.5191 91.921 17.0094C91.3081 17.6272 91.009 18.6078 91.009 19.4316C91.009 20.3975 91.3572 21.1869 91.8475 21.7116C92.3525 22.2509 92.9703 22.5206 93.7744 22.5206C94.2501 22.5206 94.7943 22.4471 95.2846 22.0303C95.5347 21.8244 95.8387 21.4468 95.9319 20.8584H93.6911V18.7206L93.6764 18.7255ZM101.546 21.54C102.13 22.0989 103.017 22.6138 103.963 22.6138C104.517 22.6138 104.846 22.4373 105.018 22.246C105.174 22.0891 105.282 21.844 105.282 21.5792C105.282 21.3733 105.209 21.1379 104.983 20.9467C104.718 20.7064 104.302 20.5986 103.63 20.3877L102.924 20.1622C102.483 20.02 101.835 19.7797 101.414 19.3041C100.874 18.7206 100.815 17.9704 100.815 17.4409C100.815 16.1415 101.321 15.3521 101.777 14.8912C102.316 14.3518 103.198 13.8909 104.478 13.8909C105.518 13.8909 106.739 14.2243 107.724 14.749L106.636 16.8819C105.812 16.2347 105.199 16.1758 104.831 16.1758C104.566 16.1758 104.199 16.2445 103.934 16.4945C103.777 16.6514 103.669 16.828 103.669 17.0584C103.669 17.2496 103.704 17.3918 103.811 17.534C103.895 17.6272 104.076 17.8184 104.723 18.0096L105.562 18.2597C106.229 18.4656 106.915 18.701 107.474 19.2992C108.013 19.8631 108.156 20.4564 108.156 21.182C108.156 22.148 107.915 23.0796 107.16 23.8396C106.263 24.7369 105.174 24.9134 104.052 24.9134C103.39 24.9134 102.757 24.8448 101.982 24.5653C101.806 24.4966 101.144 24.2466 100.389 23.7219L101.561 21.5056L101.546 21.54ZM114.118 14.1557C114.907 14.1557 115.922 14.2783 116.692 15.0873C117.29 15.7051 117.589 16.6171 117.589 17.4605C117.589 18.3578 117.276 19.1521 116.751 19.6571C116.344 20.0592 115.79 20.2896 115.3 20.3828L118.6 24.7026H115.211L112.593 20.6574V24.7026H109.862V14.1557H114.118ZM112.593 18.8824H113.118C113.525 18.8824 114.113 18.7745 114.447 18.4558C114.652 18.2499 114.795 17.8969 114.795 17.5733C114.795 17.2496 114.672 16.9064 114.427 16.6907C114.177 16.4406 113.711 16.2837 113.113 16.2837H112.588V18.8873V18.8824H112.593ZM126.17 22.9276H122.351L121.644 24.7026H118.756L122.792 14.1557H125.773L129.735 24.7026H126.817L126.17 22.9276ZM125.449 20.8388L124.268 17.4262L123.115 20.8388H125.449ZM133.687 14.1557V20.3975C133.687 20.8388 133.702 21.5204 134.226 22.0303C134.54 22.3294 135.05 22.5402 135.521 22.5402C135.991 22.5402 136.482 22.349 136.781 22.0842C137.413 21.5253 137.394 20.7506 137.394 20.1671V14.1557H140.125V20.2161C140.125 21.3242 140.076 22.4814 138.943 23.6287C138.061 24.526 136.957 24.9428 135.472 24.9428C133.819 24.9428 132.633 24.3789 131.98 23.6778C131.068 22.6775 130.961 21.3389 130.961 20.2161V14.1557H133.692H133.687ZM141.861 24.7026L143.645 14.1557H146.347L148.475 19.7846L150.735 14.1557H153.466L155.045 24.7026H152.314L151.54 18.6324L149 24.7026H147.911L145.474 18.6324L144.577 24.7026H141.861ZM0 13.9203V4.08534e-05H13.8958L9.74274 4.16289H4.15304V9.75749L0 13.9203ZM14.9696 20.5985H20.5495V15.004L24.7025 10.8411V24.7614H10.8165L14.9696 20.5985ZM4.15304 14.4695V20.5985H10.2674L6.11434 24.7614H0V18.6324L4.15304 14.4695Z" fill="white"/>
<path d="M14.9696 20.5985L10.8165 24.7614H16.3964V20.5985H14.9696ZM4.15304 8.3257H0V13.9203L4.15304 9.75745V8.3257ZM18.5882 0L14.4351 4.16285V10.2919H20.5495L24.7025 6.12905V0H18.5882Z" fill="white"/>
<path d="M18.5881 0L14.4351 4.16285V10.2919H20.5494L24.7024 6.12905V0H18.5881Z" fill="white"/>
</g>
<defs>
<clipPath id="clip0_845_28921">
<rect width="155.045" height="24.9428" fill="white"/>
</clipPath>
</defs>
</svg>
