<svg width="116" height="27" viewBox="0 0 116 27" fill="none" xmlns="http://www.w3.org/2000/svg">
<g clip-path="url(#clip0_845_28932)">
<rect width="115.226" height="25.4968" transform="translate(0 0.942871)" fill="white"/>
<path d="M38.1335 0.942871H0V26.4397H38.1335V0.942871Z" fill="white"/>
<path d="M37.3837 1.64307H0.724121V25.714H37.3837V1.64307Z" fill="#034EA2"/>
<path d="M18.2781 6.88731L19.0538 6.32687L19.8295 6.88731L19.5319 5.98315L20.3076 5.43595H19.3514L19.0538 4.51904L18.7567 5.43595H17.7868L18.5752 5.98315L18.2781 6.88731ZM14.2707 7.94396L15.0464 7.38401L15.8221 7.94396L15.5249 7.05304L16.3134 6.4926H15.344L15.0464 5.57618L14.7492 6.49309H13.7799L14.5683 7.05304L14.2707 7.94396ZM12.1123 8.46566L11.8147 9.38208H10.8585L11.6337 9.94203L11.3493 10.8334L12.1123 10.273L12.888 10.8334L12.5904 9.94203L13.3788 9.38208H12.4099L12.1128 8.46517L12.1123 8.46566ZM11.039 14.2191L11.8147 14.7791L11.5175 13.8754L12.306 13.3155H11.3361L11.0385 12.4118L10.7413 13.3155H9.77197L10.5604 13.8754L10.2628 14.7791L11.039 14.2191ZM12.4099 17.2616L12.1123 16.3579L11.8147 17.2616H10.8585L11.6337 17.8215L11.3493 18.7252L12.1123 18.1652L12.888 18.7252L12.5904 17.8215L13.3788 17.2616H12.4099ZM15.344 20.1511L15.0464 19.2474L14.762 20.1511H13.7926L14.5683 20.7115L14.2839 21.6152L15.0464 21.0552L15.8221 21.6152L15.5377 20.7115L16.3134 20.1511H15.344ZM19.3509 21.2077L19.0538 20.2908L18.7567 21.2077H17.7868L18.5752 21.7554L18.2781 22.6591L19.0538 22.0986L19.8295 22.6591L19.5319 21.7554L20.3208 21.2077H19.3509ZM23.3456 20.1511L23.0485 19.2474L22.7508 20.1511H21.7815L22.5699 20.7115L22.2728 21.6152L23.0485 21.0552L23.8237 21.6152L23.5265 20.7115L24.315 20.1511H23.3456ZM26.2797 17.2616L25.9826 16.3579L25.6854 17.2616H24.7156L25.504 17.8215L25.2069 18.7252L25.9826 18.1652L26.7583 18.7252L26.4606 17.8215L27.2491 17.2616H26.2797ZM28.3092 13.3032H27.3393L27.0422 12.399L26.745 13.3032H25.7752L26.5636 13.8631L26.2792 14.7668L27.0422 14.2069L27.8179 14.7668L27.5202 13.8631L28.3092 13.3032ZM25.2069 10.8207L25.9826 10.2735L26.7583 10.8207L26.4606 9.92977L27.2491 9.36982H26.2797L25.9826 8.45291L25.6854 9.36982H24.7156L25.504 9.92977L25.2069 10.8207ZM23.0612 5.57618L22.7636 6.49309H21.7947L22.5832 7.05304L22.286 7.94396L23.0617 7.38401L23.8374 7.94396L23.5398 7.05304L24.3282 6.4926H23.3588L23.0612 5.57618Z" fill="#FFF200"/>
<path d="M41.9214 7.01456V1.64307H45.6699V2.54624H43.033V3.81912H45.3081V4.72328H43.033V7.01456H41.9214ZM46.575 2.59773V1.64307H47.6224V2.59773H46.575ZM46.575 7.01456V3.11992H47.6224V7.01506L46.575 7.01456ZM52.2888 7.01506H51.2415V5.02924C51.2415 4.60904 51.2155 4.34181 51.1767 4.21433C51.134 4.09724 51.0575 3.9954 50.9571 3.9216C50.8536 3.84511 50.7374 3.81961 50.5952 3.81961C50.4143 3.81961 50.2461 3.87061 50.1039 3.95985C49.9641 4.04942 49.8592 4.18424 49.8068 4.34181C49.7548 4.4943 49.7293 4.79977 49.7293 5.23273V7.00231H48.682V3.11992H49.6513V3.69262C50.0005 3.24692 50.427 3.03068 50.9571 3.03068C51.19 3.03068 51.3964 3.06893 51.5906 3.15817C51.7843 3.23417 51.9264 3.3489 52.0299 3.4759C52.1334 3.60338 52.1981 3.74361 52.2368 3.90885C52.2756 4.07458 52.3015 4.30356 52.3015 4.59629L52.2888 7.01506ZM54.1241 4.31631L53.1679 4.15058C53.2709 3.76862 53.4523 3.50139 53.7235 3.31017C53.9819 3.13218 54.3697 3.04294 54.887 3.04294C55.3523 3.04294 55.7014 3.09393 55.9339 3.20867C56.1668 3.32292 56.3217 3.4504 56.4124 3.61564C56.5026 3.78137 56.5546 4.08684 56.5546 4.53255L56.5414 5.72894C56.5414 6.07216 56.5546 6.32713 56.5933 6.49286C56.6321 6.6581 56.6836 6.83609 56.787 7.01456H55.7529C55.7126 6.9148 55.6781 6.81281 55.6495 6.70909C55.6424 6.66503 55.6294 6.62214 55.6107 6.58161C55.4421 6.73777 55.2502 6.86679 55.042 6.96406C54.835 7.05232 54.6154 7.09106 54.3957 7.09106C53.9951 7.09106 53.672 6.98907 53.4263 6.76009C53.1934 6.54336 53.0772 6.26339 53.0772 5.93242C53.0772 5.71619 53.1287 5.5127 53.2322 5.34697C53.3356 5.18173 53.4911 5.0415 53.6847 4.95226C53.8789 4.86351 54.1501 4.77428 54.5119 4.71053C55.0032 4.62129 55.3396 4.53255 55.5333 4.45556V4.38005C55.5333 4.17657 55.4818 4.03683 55.3911 3.95985C55.2876 3.8711 55.1067 3.83236 54.8223 3.83236C54.6414 3.83236 54.4864 3.8711 54.383 3.9471C54.2795 4.02359 54.1888 4.12558 54.1241 4.31631ZM55.5333 5.14349C55.3252 5.20629 55.1137 5.2572 54.8998 5.29598C54.6154 5.35972 54.4217 5.42346 54.331 5.47446C54.1888 5.57595 54.1241 5.69069 54.1241 5.83092C54.1241 5.97067 54.1761 6.09815 54.2923 6.20014C54.3957 6.30163 54.5379 6.35263 54.7061 6.35263C54.8998 6.35263 55.0807 6.28889 55.2489 6.17464C55.3783 6.0854 55.4558 5.97067 55.4945 5.83092C55.5205 5.74168 55.5333 5.57595 55.5333 5.32148V5.14349ZM61.1818 7.01506H60.135V5.02924C60.135 4.60904 60.109 4.34181 60.0702 4.21433C60.0275 4.09724 59.951 3.9954 59.8506 3.9216C59.7471 3.84511 59.6309 3.81961 59.4887 3.81961C59.3078 3.81961 59.1396 3.87061 58.9974 3.95985C58.8552 4.04909 58.7518 4.18883 58.6998 4.34181C58.6483 4.4943 58.6223 4.79977 58.6223 5.23273V7.00231H57.5882V3.11992H58.5576V3.69262C58.9067 3.24692 59.3333 3.03068 59.8633 3.03068C60.0962 3.03068 60.3031 3.06893 60.4968 3.15817C60.6905 3.23417 60.8327 3.3489 60.9361 3.4759C61.0396 3.60338 61.1043 3.74361 61.1431 3.90885C61.1818 4.07458 61.2078 4.30356 61.2078 4.59629L61.1818 7.01506ZM61.8285 7.01456V6.21289L63.3147 4.53255C63.5604 4.26532 63.7413 4.06183 63.858 3.9471C63.7413 3.95985 63.5736 3.95985 63.3794 3.95985L61.9835 3.9726V3.11943H65.2539V3.84511L63.7413 5.5637L63.2117 6.13639C63.4961 6.12365 63.6771 6.1109 63.7545 6.1109H65.3702V7.01506L61.8285 7.01456ZM66.0556 2.59773V1.64307H67.1025V2.59773H66.0556ZM66.0556 7.01456V3.11992H67.1025V7.01506L66.0556 7.01456ZM70.4764 5.77993L71.5232 5.94517C71.4107 6.29441 71.1885 6.59807 70.8897 6.81108C70.6053 7.01457 70.2435 7.1038 69.8041 7.1038C69.1187 7.1038 68.6019 6.88708 68.2787 6.44187C68.0203 6.0854 67.8909 5.6397 67.8909 5.10524C67.8909 4.45606 68.0591 3.95936 68.4077 3.59014C68.7568 3.22142 69.1834 3.04294 69.7007 3.04294C70.2822 3.04294 70.7475 3.23417 71.0966 3.61564C71.4457 3.99809 71.6007 4.58305 71.5879 5.37247H68.9637C68.9765 5.67794 69.0544 5.91967 69.2221 6.0854C69.3776 6.25064 69.5845 6.34037 69.8296 6.34037C69.9978 6.34037 70.1273 6.30163 70.2435 6.21289C70.3597 6.12365 70.4117 5.97067 70.4764 5.77993ZM70.5279 4.73603C70.5151 4.44331 70.4376 4.21433 70.2955 4.06134C70.1533 3.90885 69.9718 3.83236 69.7522 3.83236C69.5198 3.83236 69.3388 3.90885 69.1834 4.07409C69.0285 4.23982 68.9637 4.45605 68.9637 4.73603H70.5279ZM73.4237 7.01506H72.3764V3.11992H73.3462V3.67987C73.5139 3.4249 73.6561 3.24692 73.7983 3.15768C73.9278 3.08168 74.0827 3.03019 74.2509 3.03019C74.4838 3.03019 74.7162 3.09393 74.9359 3.22142L74.6128 4.12509C74.4318 4.01084 74.2769 3.95985 74.1214 3.95985C73.9665 3.95985 73.8503 3.99809 73.7468 4.07458C73.6434 4.15058 73.5659 4.30356 73.5012 4.50705C73.4365 4.71102 73.4105 5.14349 73.4105 5.81817L73.4237 7.01506ZM77.1982 3.11992V3.93386H76.4873V5.49946C76.4873 5.81817 76.4873 6.00891 76.5128 6.0599C76.5387 6.11041 76.552 6.1614 76.6035 6.18739C76.6586 6.2192 76.7208 6.23657 76.7844 6.23789C76.8879 6.23789 77.0173 6.19965 77.211 6.1359L77.3017 6.93807C77.056 7.03957 76.7844 7.09057 76.474 7.09057C76.2803 7.09057 76.1122 7.06556 75.9572 7.00182C75.8018 6.93808 75.6988 6.86158 75.6209 6.7596C75.5448 6.63571 75.4963 6.49691 75.4787 6.35263C75.4532 6.23789 75.4399 5.99616 75.4399 5.62695V3.9471H74.9619V3.11992H75.4399V2.34325L76.4873 1.74505V3.11992H77.1982ZM81.1409 7.01456L79.5508 3.11943H80.6496L81.3993 5.10524L81.619 5.76718C81.671 5.60194 81.7097 5.4877 81.7225 5.43621C81.7612 5.32197 81.7999 5.21998 81.8391 5.10524L82.5889 3.11943H83.6617L82.0843 7.01456H81.1409ZM84.0495 5.01649C84.0495 4.67278 84.1402 4.34181 84.3079 4.02359C84.473 3.71273 84.7245 3.45627 85.0321 3.28516C85.3544 3.11437 85.7142 3.02673 86.079 3.03019C86.6737 3.03019 87.165 3.22142 87.5529 3.60387C87.9403 3.98534 88.1217 4.4688 88.1217 5.05474C88.1217 5.64019 87.9275 6.1364 87.5396 6.51836C87.1518 6.90032 86.6605 7.1038 86.079 7.1038C85.7171 7.1038 85.368 7.0278 85.0449 6.86207C84.7218 6.69683 84.4634 6.46736 84.2952 6.14914C84.1402 5.84367 84.0495 5.46171 84.0495 5.01649ZM85.1224 5.06749C85.1224 5.44896 85.2131 5.75443 85.4067 5.95841C85.6009 6.16189 85.8206 6.26388 86.0917 6.26388C86.3634 6.26388 86.5963 6.16189 86.7772 5.95841C86.9581 5.75443 87.0616 5.44896 87.0616 5.06749C87.0616 4.68504 86.9709 4.3928 86.7772 4.18883C86.6923 4.09075 86.5869 4.01254 86.4685 3.95975C86.35 3.90696 86.2214 3.88088 86.0917 3.88336C85.8206 3.88336 85.5877 3.98534 85.4067 4.18883C85.2258 4.3928 85.1224 4.68553 85.1224 5.06749ZM92.5419 7.01506H91.4951V5.02924C91.4951 4.60904 91.4691 4.34181 91.4304 4.21433C91.3916 4.08684 91.3142 3.99809 91.2107 3.9216C91.1073 3.84511 90.991 3.81961 90.8489 3.81961C90.6679 3.81961 90.4997 3.87061 90.3575 3.95985C90.2154 4.06183 90.1119 4.18883 90.0599 4.34181C90.0084 4.4943 89.9824 4.79977 89.9824 5.23273V7.00231H88.9356V3.11992H89.905V3.69262C90.2541 3.24692 90.6807 3.03068 91.2107 3.03068C91.4431 3.03068 91.65 3.06893 91.8442 3.15817C92.0379 3.23417 92.1801 3.3489 92.2835 3.4759C92.387 3.60338 92.4517 3.74361 92.4905 3.90885C92.5292 4.07458 92.5552 4.30356 92.5552 4.59629L92.5419 7.01506ZM99.3545 7.01456H98.3846V6.44187C98.2407 6.65312 98.0451 6.82396 97.8163 6.93807C97.5962 7.04006 97.3765 7.1038 97.1569 7.1038C96.7043 7.1038 96.3164 6.92582 95.9933 6.56935C95.6702 6.21289 95.502 5.70344 95.502 5.067C95.502 4.43056 95.6575 3.90885 95.9806 3.56514C96.3037 3.22142 96.6915 3.04294 97.1696 3.04294C97.6094 3.04294 97.9973 3.22142 98.3204 3.59063V1.64307H99.3672L99.3545 7.01456ZM96.5621 4.99051C96.5621 5.41072 96.6268 5.70344 96.7303 5.89466C96.8985 6.16189 97.1309 6.30163 97.4413 6.30163C97.6869 6.30163 97.8938 6.20014 98.0615 5.99616C98.2297 5.79268 98.3204 5.48721 98.3204 5.0925C98.3204 4.64728 98.2424 4.32906 98.0748 4.12509C97.9066 3.9216 97.6997 3.83236 97.4413 3.83236C97.1829 3.83236 96.9887 3.93435 96.821 4.12509C96.6528 4.31631 96.5621 4.5958 96.5621 4.99051ZM102.677 5.77993L103.724 5.94517C103.611 6.29441 103.389 6.59807 103.09 6.81108C102.806 7.01457 102.444 7.1038 102.005 7.1038C101.319 7.1038 100.802 6.88708 100.479 6.44187C100.22 6.0854 100.091 5.6397 100.091 5.10524C100.091 4.45606 100.26 3.95936 100.608 3.59014C100.957 3.22142 101.384 3.04294 101.901 3.04294C102.483 3.04294 102.948 3.23417 103.297 3.61564C103.646 3.99809 103.801 4.58305 103.789 5.37247H101.152C101.164 5.67794 101.242 5.91967 101.41 6.0854C101.565 6.25064 101.772 6.34037 102.017 6.34037C102.186 6.34037 102.315 6.30163 102.431 6.21289C102.547 6.12365 102.612 5.97067 102.677 5.77993ZM102.728 4.73603C102.716 4.44331 102.638 4.21433 102.496 4.06134C102.353 3.90885 102.172 3.83236 101.953 3.83236C101.72 3.83236 101.539 3.90885 101.384 4.07409C101.229 4.23982 101.164 4.45605 101.164 4.73603H102.728ZM105.624 7.01506H104.576V3.11992H105.546V3.67987C105.714 3.4249 105.856 3.24692 105.998 3.15768C106.128 3.08168 106.283 3.03019 106.451 3.03019C106.684 3.03019 106.916 3.09393 107.136 3.22142L106.813 4.12509C106.632 4.01084 106.477 3.95985 106.322 3.95985C106.167 3.95985 106.05 3.99809 105.947 4.07458C105.843 4.15058 105.766 4.30356 105.701 4.50705C105.637 4.71102 105.611 5.14349 105.611 5.81817L105.624 7.01506ZM41.9214 16.0272V10.6562H45.9675V11.5599H43.0202V12.7563H45.7606V13.6599H43.0202V15.124H46.071V16.0277L41.9214 16.0272ZM49.5999 16.0267V15.4418C49.4577 15.6457 49.264 15.811 49.0311 15.9385C48.7985 16.0555 48.5418 16.1165 48.2814 16.1164C48.0102 16.1164 47.7773 16.0655 47.5704 15.9512C47.3705 15.8441 47.2116 15.674 47.1183 15.4673C47.0276 15.2638 46.9761 14.9711 46.9761 14.6018V12.1321H48.023V13.9267C48.023 14.4744 48.0357 14.8053 48.0877 14.9328C48.1392 15.0603 48.1907 15.149 48.2946 15.2255C48.3976 15.302 48.527 15.3275 48.682 15.3275C48.8634 15.3275 49.0183 15.2765 49.1605 15.1873C49.3027 15.098 49.3934 14.9711 49.4449 14.8308C49.4969 14.6911 49.5224 14.3346 49.5224 13.7869V12.1321H50.5697V16.0272L49.5999 16.0267ZM52.6634 16.0272H51.6166V12.1321H52.5859V12.6793C52.7541 12.4121 52.8963 12.2468 53.0385 12.1576C53.1675 12.0683 53.3229 12.0301 53.4906 12.0301C53.7235 12.0301 53.9559 12.0938 54.1761 12.2213L53.8524 13.125C53.6715 13.0102 53.5166 12.9597 53.3616 12.9597C53.2062 12.9597 53.09 12.9975 52.9865 13.074C52.8831 13.1505 52.8056 13.303 52.7409 13.5069C52.6762 13.7104 52.6507 14.1561 52.6507 14.8181L52.6634 16.0272ZM54.3825 14.0286C54.3825 13.6849 54.4732 13.354 54.6409 13.0357C54.806 12.7249 55.0575 12.4684 55.3651 12.2973C55.6874 12.1265 56.0472 12.0389 56.4119 12.0423C57.0067 12.0423 57.498 12.2336 57.8858 12.6155C58.2737 12.9975 58.4546 13.481 58.4546 14.0669C58.4546 14.6523 58.2605 15.1485 57.8726 15.5305C57.4848 15.9125 56.9939 16.116 56.4119 16.116C56.0501 16.116 55.701 16.04 55.3778 15.8742C55.0547 15.7085 54.7963 15.4795 54.6281 15.1613C54.4732 14.8558 54.3825 14.4739 54.3825 14.0286ZM55.4553 14.0796C55.4553 14.4611 55.546 14.7666 55.7397 14.9706C55.9339 15.174 56.1535 15.276 56.4252 15.276C56.6963 15.276 56.9292 15.174 57.1101 14.9706C57.2911 14.7666 57.3813 14.4611 57.3813 14.0792C57.3813 13.6977 57.2911 13.405 57.1101 13.2015C57.0254 13.1033 56.9201 13.0251 56.8017 12.9722C56.6834 12.9193 56.5548 12.8931 56.4252 12.8955C56.1535 12.8955 55.9206 12.9975 55.7397 13.201C55.546 13.405 55.4553 13.6982 55.4553 14.0796ZM59.2563 12.1321H60.2257V12.7048C60.3585 12.506 60.5354 12.3404 60.7425 12.2208C60.9626 12.0933 61.195 12.0428 61.4667 12.0428C61.9188 12.0428 62.3198 12.2208 62.6297 12.5773C62.9533 12.9338 63.1083 13.4305 63.1083 14.0537C63.1083 14.6778 62.9533 15.2123 62.6297 15.5688C62.3066 15.9252 61.9188 16.1032 61.4534 16.1032C61.2338 16.1032 61.0401 16.065 60.8592 15.9757C60.6782 15.887 60.4968 15.7467 60.3031 15.5305V17.4908H59.2563V12.1321ZM60.2904 14.0159C60.2904 14.4484 60.3806 14.7793 60.5488 14.9833C60.7297 15.1868 60.9366 15.3015 61.195 15.3015C61.4534 15.3015 61.6476 15.1995 61.8025 15.0088C61.958 14.8176 62.0482 14.4994 62.0482 14.0664C62.0482 13.6594 61.9707 13.354 61.8025 13.1627C61.7292 13.0689 61.6349 12.9935 61.5272 12.9427C61.4195 12.8919 61.3014 12.867 61.1823 12.87C60.9366 12.87 60.717 12.972 60.5488 13.1627C60.3806 13.354 60.2904 13.6334 60.2904 14.0159ZM64.7244 13.3285L63.7678 13.1627C63.8712 12.7808 64.0522 12.5008 64.3233 12.3228C64.5822 12.1443 64.97 12.0551 65.4868 12.0551C65.9522 12.0551 66.3013 12.1061 66.5342 12.2208C66.7666 12.3228 66.9215 12.4626 67.0122 12.6278C67.103 12.7935 67.1544 13.099 67.1544 13.5447L67.1417 14.7411C67.1417 15.0848 67.1544 15.3393 67.1932 15.4923C67.2319 15.6448 67.2839 15.8355 67.3868 16.014H66.3528C66.3127 15.9142 66.2783 15.8122 66.2498 15.7085C66.2365 15.6448 66.2238 15.607 66.2106 15.5943C66.0418 15.7501 65.85 15.8788 65.6418 15.9757C65.4373 16.0619 65.2174 16.1053 64.9955 16.1032C64.5949 16.1032 64.2718 16.0012 64.0262 15.7722C63.7933 15.556 63.6771 15.276 63.6771 14.9451C63.6771 14.7283 63.729 14.5249 63.8325 14.3591C63.9355 14.1939 64.0909 14.0537 64.2846 13.9649C64.4787 13.8757 64.7499 13.7992 65.1122 13.7227C65.6031 13.6339 65.9394 13.5447 66.1331 13.4682V13.3662C66.1331 13.1627 66.0816 13.023 65.9781 12.9465C65.8747 12.8573 65.6938 12.819 65.4094 12.819C65.2284 12.819 65.073 12.8573 64.97 12.921C64.8666 12.9847 64.7886 13.1377 64.7244 13.3285ZM64.2718 11.4442V10.566H65.1637V11.4442H64.2718ZM66.1203 14.1556C65.9909 14.1939 65.7712 14.2576 65.4868 14.3086C65.2025 14.3724 65.0088 14.4229 64.9181 14.4866C64.7759 14.5886 64.7112 14.7028 64.7112 14.8431C64.7112 14.9828 64.7631 15.1103 64.8793 15.2123C64.9828 15.3138 65.125 15.3648 65.2932 15.3648C65.4868 15.3648 65.6678 15.301 65.836 15.1868C65.9654 15.0976 66.0429 14.9828 66.0816 14.8431C66.1076 14.7538 66.1203 14.5881 66.1203 14.3464V14.1556ZM65.8747 11.4442V10.566H66.7793V11.4442H65.8747ZM68.188 11.6104V10.6557H69.2354V11.6104H68.188ZM68.188 16.0272V12.1321H69.2354V16.0272H68.188ZM69.9336 14.9196L70.9804 14.7666C71.0192 14.9706 71.1099 15.1231 71.2521 15.225C71.3943 15.327 71.5752 15.3775 71.8208 15.3775C72.0925 15.3775 72.2989 15.327 72.4284 15.225C72.4731 15.1935 72.5094 15.1515 72.5342 15.1027C72.559 15.0539 72.5715 14.9998 72.5706 14.9451C72.5715 14.9096 72.5651 14.8743 72.5518 14.8414C72.5384 14.8085 72.5185 14.7787 72.4931 14.7538C72.4411 14.7033 72.3249 14.6651 72.144 14.6141C71.3036 14.4356 70.7608 14.2576 70.5411 14.1174C70.2307 13.9012 70.0758 13.6212 70.0758 13.2392C70.0758 12.896 70.2052 12.6155 70.4764 12.3861C70.748 12.1571 71.1614 12.0428 71.7301 12.0428C72.2989 12.0428 72.674 12.1316 72.9324 12.3101C73.1913 12.4881 73.3722 12.743 73.4757 13.0867L72.4931 13.2647C72.4579 13.1231 72.3701 13.0002 72.2474 12.921C72.1312 12.8445 71.963 12.8063 71.7434 12.8063C71.4717 12.8063 71.2648 12.8445 71.1486 12.921C71.1137 12.9424 71.0848 12.9723 71.0645 13.0079C71.0441 13.0434 71.0331 13.0835 71.0324 13.1245C71.0324 13.201 71.0711 13.2647 71.1359 13.3157C71.2261 13.3795 71.5492 13.481 72.118 13.6084C72.674 13.7359 73.0619 13.8884 73.2815 14.0664C73.5012 14.2449 73.6046 14.4994 73.6046 14.8303C73.6046 15.1868 73.4497 15.4923 73.1521 15.7472C72.8549 16.0017 72.4024 16.1287 71.8081 16.1287C71.2648 16.1287 70.8382 16.0272 70.5284 15.8105C70.218 15.5943 70.0371 15.2888 69.9336 14.9196ZM77.9867 13.2902L76.9526 13.4687C76.9138 13.2647 76.8359 13.1122 76.7197 13.0102C76.6035 12.9087 76.4353 12.8578 76.2416 12.8578C75.9827 12.8578 75.7763 12.9465 75.6209 13.125C75.4659 13.303 75.3884 13.5957 75.3884 14.0159C75.3884 14.4744 75.4659 14.8053 75.6209 14.9965C75.7763 15.1873 75.996 15.276 76.2544 15.276C76.448 15.276 76.6162 15.225 76.7457 15.1108C76.8746 14.9961 76.9653 14.8053 77.0168 14.5381L78.0514 14.7033C77.9479 15.174 77.741 15.5183 77.4306 15.76C77.1203 16.0017 76.7197 16.1164 76.2156 16.1164C75.6341 16.1164 75.1815 15.938 74.8324 15.582C74.4833 15.225 74.3151 14.7288 74.3151 14.0924C74.3151 13.456 74.4833 12.9465 74.8324 12.59C75.1815 12.2336 75.6468 12.0556 76.2284 12.0556C76.7069 12.0556 77.0948 12.1576 77.3792 12.3611C77.6635 12.5523 77.87 12.8705 77.9867 13.2902ZM79.8224 10.6557V12.6288C80.1583 12.2341 80.5589 12.0428 81.0375 12.0428C81.2831 12.0428 81.49 12.0811 81.6837 12.1703C81.8774 12.2596 82.0196 12.3738 82.123 12.5135C82.223 12.6506 82.2935 12.8068 82.33 12.9725C82.3687 13.1377 82.3819 13.3922 82.3819 13.7487V16.04H81.3346V13.9777C81.3346 13.5707 81.3086 13.3157 81.2699 13.2015C81.2357 13.0903 81.1624 12.9953 81.0635 12.9342C80.9502 12.8663 80.8204 12.831 80.6884 12.8323C80.5242 12.8291 80.3626 12.8734 80.223 12.9597C80.0808 13.0485 79.9901 13.1632 79.9259 13.3285C79.8612 13.4942 79.8352 13.7487 79.8352 14.0669V16.0145H78.7884V10.6552L79.8224 10.6557ZM85.7299 14.7926L86.7767 14.9578C86.6645 15.3071 86.4425 15.6108 86.1437 15.8237C85.8593 16.0272 85.497 16.1164 85.0576 16.1164C84.3727 16.1164 83.8554 15.8997 83.5322 15.4545C83.2738 15.098 83.1444 14.6523 83.1444 14.1179C83.1444 13.4687 83.3126 12.972 83.6617 12.6028C84.0108 12.2336 84.4374 12.0556 84.9542 12.0556C85.5362 12.0556 86.0015 12.2468 86.3501 12.6283C86.6992 13.0107 86.8547 13.5957 86.8414 14.3851H84.2172C84.2305 14.6906 84.3079 14.9323 84.4761 15.098C84.6438 15.2633 84.838 15.3525 85.0836 15.3525C85.2518 15.3525 85.3808 15.3143 85.497 15.225C85.6137 15.1363 85.6784 14.9833 85.7299 14.7926ZM85.7946 13.7482C85.7814 13.4559 85.7039 13.2265 85.5617 13.074C85.4195 12.921 85.2386 12.845 85.0189 12.845C84.786 12.845 84.6051 12.921 84.4501 13.0867C84.2952 13.252 84.2305 13.4687 84.2305 13.7487L85.7946 13.7482ZM91.2882 16.0272H90.2408V14.0414C90.2408 13.6212 90.2149 13.354 90.1761 13.2265C90.1374 13.099 90.0599 13.0102 89.9565 12.9338C89.853 12.8573 89.7368 12.8318 89.5946 12.8318C89.4137 12.8318 89.2455 12.8828 89.1033 12.9847C88.9611 13.0862 88.8576 13.2137 88.8062 13.3795C88.7542 13.5447 88.7287 13.8374 88.7287 14.2704V16.0395H87.6814V12.1316H88.6512V12.7048C88.9998 12.2591 89.4264 12.0428 89.9565 12.0428C90.1894 12.0428 90.3963 12.0811 90.59 12.1703C90.7836 12.2463 90.9258 12.3611 91.0293 12.4881C91.1327 12.6155 91.1975 12.7558 91.2362 12.921C91.2749 13.0867 91.3009 13.3157 91.3009 13.6084L91.2882 16.0272ZM94.4679 10.6557H95.5667V13.5707C95.5667 14.0286 95.5795 14.3341 95.6055 14.4744C95.657 14.6906 95.7604 14.8691 95.9418 15.0088C96.1228 15.149 96.3552 15.2128 96.6656 15.2128C96.9759 15.2128 97.2083 15.149 97.3765 15.0216C97.5315 14.8941 97.6349 14.7421 97.6609 14.5636C97.6869 14.3851 97.7124 14.0796 97.7124 13.6467V10.6557H98.8112V13.4814C98.8112 14.1306 98.7852 14.5891 98.721 14.8563C98.6563 15.1235 98.5528 15.3525 98.3979 15.531C98.2213 15.7263 97.9991 15.8749 97.7511 15.9635C97.48 16.0655 97.1309 16.1292 96.7043 16.1292C96.187 16.1292 95.7864 16.0655 95.5153 15.9507C95.2436 15.8365 95.0367 15.6835 94.8818 15.4928C94.7359 15.3184 94.63 15.1142 94.5714 14.8946C94.4939 14.5891 94.4679 14.1306 94.4679 13.5324V10.6557ZM103.569 16.0272H102.522V14.0414C102.522 13.6212 102.496 13.354 102.457 13.2265C102.418 13.099 102.341 13.0102 102.237 12.9338C102.134 12.8573 102.017 12.8318 101.875 12.8318C101.694 12.8318 101.526 12.8828 101.384 12.9847C101.242 13.0862 101.138 13.2137 101.087 13.3795C101.035 13.5447 101.009 13.8374 101.009 14.2704V16.0395H99.962V12.1316H100.931V12.7048C101.28 12.2591 101.707 12.0428 102.237 12.0428C102.47 12.0428 102.676 12.0811 102.871 12.1703C103.064 12.2463 103.206 12.3611 103.31 12.4881C103.413 12.6155 103.478 12.7558 103.517 12.921C103.556 13.0867 103.582 13.3157 103.582 13.6084L103.569 16.0272ZM104.628 11.6104V10.6557H105.675V11.6104H104.628ZM104.628 16.0272V12.1321H105.675V16.0272H104.628ZM106.503 14.0286C106.503 13.6849 106.594 13.354 106.761 13.0357C106.926 12.7249 107.178 12.4684 107.486 12.2973C107.808 12.1265 108.168 12.0389 108.532 12.0423C109.127 12.0423 109.618 12.2336 110.006 12.6155C110.394 12.9975 110.575 13.481 110.575 14.0669C110.575 14.6523 110.381 15.1485 109.993 15.5305C109.605 15.9125 109.114 16.116 108.532 16.116C108.171 16.116 107.821 16.04 107.498 15.8742C107.175 15.7085 106.917 15.4795 106.749 15.1613C106.594 14.8558 106.503 14.4739 106.503 14.0286ZM107.576 14.0796C107.576 14.4611 107.666 14.7666 107.86 14.9706C108.054 15.174 108.274 15.276 108.545 15.276C108.817 15.276 109.05 15.174 109.231 14.9706C109.412 14.7666 109.515 14.4611 109.515 14.0792C109.515 13.6977 109.424 13.405 109.231 13.2015C109.146 13.1033 109.04 13.025 108.922 12.9721C108.803 12.9192 108.675 12.8931 108.545 12.8955C108.274 12.8955 108.041 12.9975 107.86 13.201C107.679 13.405 107.576 13.6982 107.576 14.0796ZM115.009 16.0272H113.961V14.0414C113.961 13.6212 113.935 13.354 113.897 13.2265C113.858 13.099 113.78 13.0102 113.677 12.9338C113.573 12.8573 113.457 12.8318 113.315 12.8318C113.134 12.8318 112.966 12.8828 112.824 12.9847C112.682 13.0862 112.578 13.2137 112.527 13.3795C112.475 13.5447 112.449 13.8374 112.449 14.2704V16.0395H111.402V12.1316H112.371V12.7048C112.72 12.2591 113.147 12.0428 113.677 12.0428C113.91 12.0428 114.117 12.0811 114.31 12.1703C114.504 12.2463 114.646 12.3611 114.75 12.4881C114.853 12.6155 114.918 12.7558 114.957 12.921C114.995 13.0867 115.021 13.3157 115.021 13.6084L115.009 16.0272Z" fill="#034EA2"/>
<path d="M41.9214 25.7013V21.056H42.5676L45.0497 24.7089V21.056H45.6444V25.7018H44.9982L42.5161 22.0489V25.7018L41.9214 25.7013ZM48.9541 24.6192L49.5484 24.6957C49.4577 25.0389 49.2767 25.3066 49.0183 25.4973C48.7599 25.6886 48.4368 25.7773 48.0357 25.7773C47.5317 25.7773 47.1438 25.6248 46.8467 25.3194C46.5496 25.0139 46.4069 24.5937 46.4069 24.046C46.4069 23.486 46.5491 23.0408 46.8467 22.7221C47.1438 22.4044 47.5317 22.2514 47.997 22.2514C48.4496 22.2514 48.8247 22.4044 49.1218 22.7099C49.4062 23.0153 49.5611 23.4478 49.5611 24.0082V24.1607H47.0149C47.0404 24.5299 47.1438 24.8099 47.338 25.0139C47.5317 25.2046 47.7646 25.3066 48.049 25.3066C48.2554 25.3066 48.4363 25.2556 48.5918 25.1409C48.7467 25.0394 48.8639 24.8609 48.9541 24.6192ZM47.0536 23.69H48.9664C48.9409 23.4095 48.8634 23.1933 48.7467 23.0536C48.5658 22.8368 48.3201 22.7226 48.023 22.7226C47.7513 22.7226 47.5317 22.8113 47.3507 22.9898C47.1693 23.1678 47.0664 23.3968 47.0536 23.69ZM49.8975 25.7013L51.1512 23.9577L50.0009 22.3411H50.7247L51.2547 23.1305C51.3582 23.2825 51.4356 23.41 51.4871 23.512C51.5778 23.3718 51.668 23.2448 51.746 23.1428L52.3275 22.3411H53.0258L51.8495 23.9322L53.116 25.7141H52.405L51.7073 24.6702L51.5259 24.3907L50.634 25.7146H49.8975V25.7013ZM54.8483 25.1924L54.9258 25.7013C54.7817 25.7349 54.6343 25.7521 54.4864 25.7523C54.2795 25.7523 54.1113 25.7141 53.9951 25.6503C53.8889 25.593 53.8031 25.504 53.7495 25.3958C53.698 25.2939 53.6847 25.0649 53.6847 24.7212V22.7868H53.2582V22.3411H53.6847V21.5139L54.2668 21.1702V22.3411H54.8483V22.7868H54.2668V24.7471C54.2668 24.9129 54.2795 25.0144 54.2923 25.0654C54.3182 25.1164 54.3442 25.1546 54.3957 25.1801C54.4567 25.2075 54.5231 25.2206 54.5899 25.2183C54.6541 25.2183 54.7321 25.2051 54.8483 25.1924ZM57.6917 23.8807V23.3335H59.6956V25.0521C59.4091 25.2792 59.0912 25.4636 58.7518 25.5993C58.4286 25.7268 58.0928 25.7778 57.7436 25.7778C57.3042 25.7807 56.8703 25.6805 56.4767 25.4851C56.0888 25.2939 55.8177 25.0011 55.6235 24.6319C55.4298 24.2627 55.3391 23.8425 55.3391 23.3973C55.3391 22.9388 55.4298 22.5191 55.6235 22.1372C55.8177 21.7424 56.0888 21.4497 56.4512 21.259C56.813 21.0678 57.2264 20.9785 57.6917 20.9785C58.028 20.9785 58.3384 21.0295 58.6228 21.1442C58.8939 21.2585 59.1136 21.3987 59.269 21.6022C59.424 21.7934 59.5402 22.0479 59.6309 22.3661L59.0621 22.5191C59.0125 22.3176 58.9248 22.1273 58.8037 21.9587C58.7003 21.8189 58.5448 21.7169 58.3512 21.6277C58.1456 21.5451 57.9264 21.5019 57.7049 21.5002C57.4205 21.5002 57.1749 21.539 56.968 21.6277C56.7877 21.7013 56.624 21.8102 56.4864 21.948C56.3489 22.0857 56.2402 22.2496 56.1668 22.4299C56.0471 22.725 55.9855 23.0405 55.9853 23.359C55.9853 23.7792 56.0633 24.123 56.2055 24.4029C56.3477 24.6829 56.5674 24.8864 56.8385 25.0266C57.1109 25.1642 57.4125 25.234 57.7177 25.2301C57.9893 25.2301 58.2477 25.1791 58.5061 25.0776C58.765 24.9756 58.9587 24.8609 59.0881 24.7467V23.8803L57.6917 23.8807ZM62.8759 24.6192L63.4701 24.6957C63.3799 25.0389 63.199 25.3066 62.9401 25.4973C62.6817 25.6886 62.3586 25.7773 61.958 25.7773C61.4539 25.7773 61.0661 25.6248 60.7685 25.3194C60.4713 25.0139 60.3291 24.5937 60.3291 24.046C60.3291 23.486 60.4713 23.0408 60.7685 22.7221C61.0661 22.4044 61.4539 22.2514 61.9192 22.2514C62.3713 22.2514 62.7464 22.4044 63.0436 22.7099C63.3279 23.0153 63.4834 23.4478 63.4834 24.0082V24.1607H60.9366C60.9626 24.5299 61.0661 24.8099 61.2598 25.0139C61.4539 25.2046 61.6863 25.3066 61.9707 25.3066C62.1777 25.3066 62.3586 25.2556 62.5135 25.1409C62.669 25.0394 62.7852 24.8609 62.8759 24.6192ZM60.9754 23.69H62.8886C62.8626 23.4095 62.7852 23.1933 62.669 23.0536C62.488 22.8368 62.2424 22.7226 61.9447 22.7226C61.6736 22.7226 61.4539 22.8113 61.273 22.9898C61.0921 23.1678 60.9886 23.3968 60.9754 23.69ZM64.2066 25.7013V22.3406H64.7239V22.8246C64.9696 22.4554 65.3314 22.2641 65.8095 22.2641C66.0051 22.2614 66.199 22.3006 66.3783 22.3789C66.5464 22.4554 66.6759 22.5441 66.7661 22.6716C66.8568 22.7863 66.9083 22.9266 66.947 23.0918C66.973 23.1938 66.973 23.3845 66.973 23.6518V25.7268H66.3915V23.6773C66.3915 23.4483 66.3655 23.2703 66.3268 23.1556C66.288 23.0408 66.1973 22.9516 66.0811 22.8751C65.9586 22.8073 65.8206 22.7723 65.6805 22.7736C65.4349 22.7736 65.2152 22.8501 65.047 23.0026C64.8661 23.1556 64.7754 23.4483 64.7754 23.8807V25.7141H64.2066V25.7013ZM70.2047 24.6192L70.7995 24.6957C70.7088 25.0389 70.5279 25.3066 70.2695 25.4973C70.0106 25.6886 69.6875 25.7773 69.2869 25.7773C68.7828 25.7773 68.395 25.6248 68.0978 25.3194C67.8002 25.0139 67.658 24.5937 67.658 24.046C67.658 23.486 67.8002 23.0408 68.0978 22.7221C68.395 22.4044 68.7828 22.2514 69.2481 22.2514C69.7007 22.2514 70.0753 22.4044 70.3729 22.7099C70.6573 23.0153 70.8123 23.4478 70.8123 24.0082V24.1607H68.2655C68.2915 24.5299 68.395 24.8099 68.5886 25.0139C68.7828 25.2046 69.0152 25.3066 69.2996 25.3066C69.5065 25.3066 69.6875 25.2556 69.8429 25.1409C69.9978 25.0266 70.1273 24.8609 70.2047 24.6192ZM68.3047 23.69H70.2175C70.192 23.4095 70.114 23.1933 69.9978 23.0536C69.8169 22.8368 69.5712 22.7226 69.2741 22.7226C69.0025 22.7226 68.7828 22.8113 68.6019 22.9898C68.4209 23.1678 68.3302 23.3968 68.3047 23.69ZM71.5232 25.7013V22.3406H72.0405V22.8501C72.1695 22.6079 72.2989 22.4554 72.4151 22.3789C72.5313 22.3024 72.648 22.2641 72.7902 22.2641C72.9839 22.2641 73.1781 22.3279 73.3845 22.4426L73.1908 22.9771C73.0486 22.9006 72.9064 22.8496 72.7642 22.8496C72.6421 22.8464 72.523 22.8871 72.4284 22.9643C72.3249 23.0408 72.2602 23.1428 72.2082 23.283C72.1442 23.4977 72.1137 23.721 72.118 23.945V25.7013H71.5232ZM75.9572 25.2811C75.7376 25.4596 75.5306 25.5866 75.337 25.6631C75.1347 25.7402 74.9199 25.7791 74.7035 25.7778C74.3289 25.7778 74.0445 25.6886 73.8376 25.5101C73.6306 25.3321 73.5399 25.1031 73.5399 24.8231C73.5399 24.6574 73.5792 24.5044 73.6566 24.377C73.7341 24.2372 73.8376 24.1357 73.9538 24.0465C74.0841 23.9675 74.2229 23.9034 74.3676 23.8552C74.4838 23.8302 74.652 23.7915 74.8844 23.7665C75.3497 23.7155 75.6988 23.6518 75.9185 23.5753V23.4228C75.9185 23.1933 75.867 23.0281 75.7508 22.9261C75.6086 22.7986 75.3884 22.7349 75.0913 22.7349C74.8197 22.7349 74.6132 22.7863 74.4838 22.8751C74.3544 22.9643 74.2641 23.1301 74.1994 23.3718L73.6306 23.2953C73.6821 23.0536 73.7728 22.8623 73.889 22.7226C74.0052 22.5824 74.1734 22.4676 74.4063 22.3789C74.626 22.3024 74.8844 22.2641 75.182 22.2641C75.4792 22.2641 75.7116 22.3024 75.893 22.3661C76.0739 22.4299 76.2029 22.5191 76.2936 22.6211C76.3838 22.7226 76.4358 22.8501 76.4745 23.0153C76.4873 23.1173 76.5005 23.2825 76.5005 23.5375V24.301C76.5005 24.8354 76.5133 25.1669 76.5392 25.3066C76.5647 25.4468 76.6167 25.5866 76.6814 25.7136H76.0739C76.0182 25.5745 75.9791 25.4293 75.9572 25.2811ZM75.9185 24.0082C75.7116 24.0975 75.3884 24.1612 74.9751 24.2245C74.7422 24.2627 74.574 24.301 74.4711 24.3392C74.373 24.3729 74.2903 24.4408 74.2382 24.5304C74.1858 24.6096 74.1587 24.7028 74.1607 24.7976C74.1607 24.9501 74.2254 25.0771 74.3416 25.1791C74.4578 25.2811 74.626 25.3321 74.8584 25.3321C75.0786 25.3321 75.285 25.2811 75.4532 25.1919C75.6214 25.0904 75.7508 24.9629 75.841 24.7976C75.9057 24.6702 75.9317 24.4789 75.9317 24.2245V24.0082H75.9185ZM78.6589 25.1924L78.7369 25.7013C78.5927 25.735 78.4451 25.7521 78.2971 25.7523C78.0901 25.7523 77.9224 25.7141 77.8057 25.6503C77.6996 25.5928 77.6138 25.5039 77.5601 25.3958C77.5086 25.2939 77.4959 25.0649 77.4959 24.7212V22.7868H77.0693V22.3411H77.4959V21.5139L78.0774 21.1702V22.3411H78.6589V22.7868H78.0774V24.7471C78.0774 24.9129 78.0901 25.0144 78.1034 25.0654C78.1289 25.1164 78.1549 25.1546 78.2068 25.1801C78.2676 25.2075 78.3339 25.2206 78.4005 25.2183C78.478 25.2183 78.5555 25.2051 78.6589 25.1924ZM79.2277 21.7047V21.0555H79.8092V21.7174H79.2277V21.7047ZM79.2277 25.7013V22.3411H79.8092V25.7013H79.2277ZM80.4819 24.021C80.4819 23.3973 80.6629 22.9388 81.012 22.6334C81.3091 22.3789 81.6582 22.2641 82.0848 22.2641C82.5501 22.2641 82.938 22.4171 83.2351 22.7226C83.5322 23.0281 83.6877 23.4483 83.6877 23.9827C83.6877 24.4157 83.6229 24.7594 83.4935 25.0011C83.3645 25.2561 83.1704 25.4468 82.912 25.5738C82.6581 25.7112 82.3734 25.7814 82.0848 25.7778C81.6062 25.7778 81.2184 25.6248 80.9213 25.3194C80.6241 25.0139 80.4819 24.5809 80.4819 24.021ZM81.0762 24.021C81.0762 24.4539 81.1669 24.7722 81.3606 24.9884C81.5548 25.2046 81.7872 25.3071 82.0848 25.3071C82.3692 25.3071 82.6148 25.2046 82.8085 24.9884C83.0027 24.7722 83.0929 24.4412 83.0929 24.0082C83.0929 23.588 83.0027 23.2825 82.8085 23.0663C82.7212 22.9637 82.612 22.8818 82.489 22.8266C82.366 22.7715 82.2323 22.7445 82.0975 22.7476C81.8132 22.7476 81.5675 22.8501 81.3738 23.0663C81.1797 23.2825 81.0762 23.588 81.0762 24.021ZM84.3594 25.7013V22.3406H84.8762V22.8246C85.1219 22.4554 85.4837 22.2641 85.9623 22.2641C86.1692 22.2641 86.3629 22.3024 86.5311 22.3789C86.6992 22.4554 86.8282 22.5441 86.9189 22.6716C87.0091 22.7863 87.0611 22.9266 87.0998 23.0918C87.1258 23.1938 87.1258 23.3845 87.1258 23.6518V25.7268H86.5438V23.6773C86.5438 23.4483 86.5183 23.2703 86.4791 23.1556C86.4403 23.0408 86.3501 22.9516 86.2339 22.8751C86.1112 22.8073 85.973 22.7723 85.8328 22.7736C85.5872 22.7736 85.3675 22.8501 85.1993 23.0026C85.0184 23.1556 84.9282 23.4483 84.9282 23.8807V25.7141H84.3594V25.7013ZM88.1079 25.7013V21.056H91.5206V21.6032H88.7414V23.0286H91.3529V23.5763H88.7414V25.1546H91.6373V25.7018L88.1079 25.7013ZM95.5927 21.0555H96.2135V23.741C96.2135 24.2117 96.1615 24.5814 96.0581 24.8486C95.9546 25.1159 95.7609 25.3449 95.4765 25.5233C95.1921 25.7013 94.8303 25.7783 94.3777 25.7783C93.9384 25.7783 93.576 25.7013 93.2916 25.5488C93.0219 25.407 92.8078 25.1782 92.6841 24.8996C92.5679 24.6197 92.5032 24.225 92.5032 23.7283V21.056H93.124V23.7415C93.124 24.149 93.1627 24.4417 93.2402 24.6329C93.3176 24.8236 93.4471 24.9761 93.628 25.0781C93.8089 25.1801 94.0414 25.2311 94.313 25.2311C94.7783 25.2311 95.1014 25.1291 95.2956 24.9256C95.4893 24.7216 95.5927 24.3274 95.5927 23.7415V21.0555Z" fill="#58595B"/>
</g>
<defs>
<clipPath id="clip0_845_28932">
<rect width="115.226" height="25.4968" fill="white" transform="translate(0 0.942871)"/>
</clipPath>
</defs>
</svg>
