<svg width="94" height="67" viewBox="0 0 94 67" fill="none" xmlns="http://www.w3.org/2000/svg">
<g clip-path="url(#clip0_845_28926)">
<rect width="93.1616" height="66.1937" transform="translate(0 0.439453)" fill="white"/>
<path d="M34.1557 21.7161C34.1557 21.9323 34.1341 22.1275 34.0694 22.3005C34.0262 22.4736 33.9399 22.6036 33.8537 22.7335C33.7731 22.8548 33.6613 22.952 33.53 23.0149C33.4046 23.0818 33.2747 23.1398 33.1412 23.1885V23.2101C33.3138 23.2317 33.4648 23.2969 33.5948 23.3832C33.7458 23.47 33.8537 23.5783 33.9615 23.7083C34.0694 23.8382 34.1557 23.9897 34.2204 24.1628C34.2851 24.3359 34.3067 24.531 34.3067 24.7257C34.3067 24.964 34.2636 25.2023 34.1773 25.419C34.091 25.6352 33.9615 25.8088 33.7889 25.9603C33.6163 26.1123 33.3785 26.2202 33.1196 26.307C32.8392 26.3933 32.5156 26.4369 32.1488 26.4369H30.8754V20.1348H32.0841C32.4508 20.1348 32.7745 20.1784 33.0333 20.2431C33.2922 20.3299 33.5085 20.4383 33.6806 20.5682C33.8537 20.6982 33.9831 20.8712 34.0478 21.0664C34.1125 21.2611 34.1557 21.4778 34.1557 21.7161ZM33.357 21.7377C33.357 21.4341 33.2491 21.1958 33.0549 21.0228C32.8607 20.8281 32.5156 20.7413 32.0841 20.7413H31.6742V22.9071H32.0841C32.5156 22.9071 32.8392 22.7987 33.0549 22.6036C33.2491 22.3873 33.357 22.1054 33.357 21.7377ZM33.4864 24.6394C33.4864 24.2927 33.3785 24.0329 33.1628 23.8382C32.947 23.6431 32.6234 23.5347 32.2135 23.5347H31.6742V25.7436H32.1704C32.645 25.7436 32.9686 25.6573 33.1844 25.4622C33.4001 25.2675 33.4864 25.0076 33.4864 24.6394ZM38.3637 26.4149H37.6948V25.9172H37.6733C37.6517 25.9603 37.6086 26.0035 37.5438 26.0687C37.4738 26.1439 37.394 26.2094 37.3065 26.2633C37.2202 26.3286 37.0908 26.3933 36.9608 26.4369C36.8143 26.4827 36.6613 26.5045 36.5078 26.5016C36.3136 26.5016 36.141 26.4801 35.99 26.4149C35.8396 26.354 35.7063 26.2574 35.6017 26.1334C35.4846 25.9883 35.4033 25.8176 35.3643 25.6352C35.2996 25.4406 35.278 25.1807 35.278 24.8777V21.9975H36.0116V24.8125C36.0116 25.1807 36.0763 25.4401 36.1842 25.5921C36.3136 25.7441 36.4862 25.8304 36.7451 25.8304C36.9608 25.8304 37.1339 25.7872 37.2844 25.6784C37.436 25.5705 37.5438 25.4626 37.6301 25.3754V22.0191H38.3637V26.4149ZM41.8812 26.4149V23.5999C41.8812 23.2322 41.8165 22.9723 41.6871 22.7987C41.5576 22.6251 41.3635 22.5604 41.1261 22.5604C40.9104 22.5604 40.7157 22.6251 40.5868 22.7335C40.4568 22.8419 40.3274 22.9502 40.2411 23.0586V26.4369H39.5076V22.0622H40.1764V22.5604H40.198C40.2195 22.5173 40.2627 22.4736 40.3058 22.4084C40.3706 22.3437 40.4353 22.279 40.5431 22.2138C40.651 22.149 40.7589 22.0838 40.8883 22.0407C41.0178 21.9975 41.1693 21.9755 41.3419 21.9755C41.536 21.9755 41.7086 21.9975 41.8812 22.0622C42.0323 22.1275 42.1833 22.2142 42.2911 22.3437C42.399 22.4736 42.4853 22.6472 42.55 22.8419C42.6148 23.037 42.6363 23.2969 42.6363 23.5999V26.4801L41.8812 26.4149ZM43.5214 24.2927C43.5214 23.8382 43.5861 23.47 43.694 23.1885C43.8018 22.885 43.9529 22.6472 44.147 22.4736C44.3412 22.3005 44.5354 22.1706 44.7727 22.0838C45.0105 21.9975 45.2262 21.9759 45.4635 21.9759C45.593 21.9759 45.7224 21.9975 45.8303 21.9975C45.9382 22.0191 46.0245 22.0407 46.0892 22.0838V19.9833L46.8232 19.897V26.4369H46.1539V25.9387H46.1323C46.1062 25.9956 46.0696 26.0469 46.0245 26.0903C45.9813 26.155 45.9166 26.2202 45.8303 26.2849C45.7325 26.3598 45.6232 26.4185 45.5067 26.4585C45.3601 26.5042 45.2071 26.5261 45.0536 26.5232C44.8379 26.5232 44.6432 26.4801 44.4706 26.3933C44.2765 26.307 44.1254 26.177 43.9744 26.0035C43.8234 25.8304 43.7155 25.5921 43.6508 25.3106C43.5861 25.0292 43.5214 24.683 43.5214 24.2927ZM45.2473 25.852C45.3552 25.852 45.4631 25.8304 45.5498 25.8088C45.6361 25.7872 45.7224 25.7436 45.7872 25.7004C45.8519 25.6573 45.9166 25.6137 45.9598 25.5705C46.0029 25.5274 46.046 25.4837 46.0676 25.4406V22.734C45.995 22.6849 45.9149 22.6481 45.8303 22.6251C45.7247 22.5973 45.6159 22.5828 45.5067 22.582C45.3341 22.582 45.1831 22.6036 45.0321 22.6688C44.881 22.7335 44.7516 22.8203 44.6432 22.9502C44.5354 23.0802 44.4491 23.2532 44.3843 23.47C44.3196 23.6867 44.298 23.9466 44.298 24.2496C44.298 24.5526 44.3196 24.8125 44.3843 25.0076C44.4491 25.2023 44.5138 25.3754 44.6001 25.5053C44.6869 25.6352 44.7947 25.722 44.9026 25.7652C44.9889 25.8304 45.1179 25.852 45.2473 25.852ZM50.7291 23.5131C50.7291 23.7083 50.7291 23.8598 50.7076 24.0113C50.686 24.1412 50.686 24.2712 50.6644 24.379H48.4413C48.4629 24.8988 48.5707 25.2675 48.7649 25.5274C48.9596 25.7652 49.24 25.8951 49.6068 25.8951C49.7362 25.8951 49.8441 25.8735 49.952 25.852C50.0598 25.8304 50.1461 25.7872 50.2109 25.7441C50.2972 25.7 50.3403 25.6573 50.4055 25.6137L50.5134 25.5058L50.7939 26.0255L50.6644 26.155C50.5997 26.2202 50.5134 26.2633 50.4271 26.3286C50.3403 26.3933 50.1893 26.4364 50.0383 26.4801C49.8872 26.5232 49.7146 26.5448 49.4989 26.5448C49.2184 26.5448 48.9811 26.5016 48.7654 26.4149C48.5433 26.3227 48.3495 26.1733 48.204 25.9819C48.0351 25.7625 47.9106 25.5124 47.8372 25.2454C47.7509 24.9424 47.7078 24.5958 47.7078 24.1844C47.7078 23.7946 47.7509 23.4484 47.8372 23.1669C47.9235 22.885 48.0529 22.6472 48.204 22.4736C48.355 22.3005 48.5276 22.149 48.7433 22.0622C48.9476 21.9736 49.1684 21.9293 49.391 21.9323C49.8009 21.9323 50.1461 22.0622 50.3835 22.3221C50.5997 22.582 50.7291 22.9713 50.7291 23.5131ZM49.3479 22.5173C49.089 22.5173 48.8733 22.6251 48.7222 22.8419C48.5707 23.0586 48.4844 23.3832 48.4413 23.7946H50.0383C50.0383 23.773 50.0383 23.7298 50.0598 23.6646V23.47C50.0598 23.1669 49.9951 22.9286 49.8872 22.7551C49.7578 22.6036 49.5852 22.5173 49.3479 22.5173ZM53.599 22.9071C53.5559 22.8634 53.4696 22.7771 53.3401 22.6904C53.1933 22.592 53.0207 22.5391 52.8439 22.5383C52.6497 22.5383 52.4987 22.5825 52.3908 22.6688C52.3414 22.7068 52.3019 22.7561 52.2755 22.8126C52.2492 22.8691 52.2368 22.9311 52.2393 22.9934C52.2393 23.1669 52.2825 23.2969 52.3693 23.4052C52.4556 23.5131 52.6066 23.6215 52.8007 23.7514L53.0812 23.9245C53.3833 24.0981 53.6206 24.2927 53.7716 24.4879C53.9442 24.6825 54.0305 24.964 54.0305 25.2675C54.0305 25.6137 53.901 25.9172 53.6637 26.155C53.4264 26.3933 53.0812 26.5016 52.6282 26.5016C52.4556 26.5016 52.3045 26.4801 52.1746 26.4585C52.057 26.4224 51.9417 26.379 51.8294 26.3286C51.7215 26.2849 51.6353 26.2202 51.5705 26.1766C51.5058 26.1118 51.4411 26.0687 51.3979 26.025L51.7431 25.4406L51.8726 25.5705C51.9157 25.6137 51.9804 25.6573 52.0667 25.7004C52.1315 25.7436 52.2178 25.7872 52.3045 25.8083C52.3908 25.8304 52.4987 25.8525 52.6282 25.8525C52.8439 25.8525 53.0165 25.8083 53.1244 25.7004C53.177 25.659 53.2198 25.6065 53.2496 25.5465C53.2795 25.4866 53.2956 25.4207 53.297 25.3538C53.297 25.2459 53.2754 25.1591 53.2538 25.0939C53.2372 25.0148 53.1909 24.9452 53.1244 24.8993C53.0596 24.8556 52.9949 24.7693 52.9302 24.7257C52.8439 24.6825 52.7576 24.6178 52.6497 24.5526L52.3693 24.3795C52.0883 24.2059 51.8726 24.0113 51.7215 23.8166C51.5705 23.6215 51.4842 23.3616 51.4842 23.0586C51.4842 22.885 51.5058 22.7551 51.5921 22.6036C51.6568 22.4736 51.7431 22.3437 51.851 22.2574C51.9589 22.149 52.0883 22.0838 52.2609 22.0191C52.4124 21.9539 52.585 21.9323 52.7576 21.9323C52.9302 21.9323 53.0812 21.9539 53.1891 21.9755C53.297 21.9975 53.4048 22.0622 53.5127 22.1054C53.599 22.149 53.6853 22.2138 53.7284 22.2574C53.7819 22.2891 53.8264 22.3338 53.8579 22.3873L53.599 22.9071ZM57.2029 26.3933V23.5783C57.2029 23.2101 57.1597 22.9502 57.0519 22.7987C56.944 22.6467 56.793 22.5604 56.5557 22.5604C56.4262 22.5604 56.3183 22.582 56.232 22.6036C56.142 22.6303 56.055 22.6667 55.9727 22.7119C55.9028 22.7557 55.8378 22.8066 55.7785 22.8639C55.7138 22.9286 55.6706 22.9718 55.649 23.0149V26.3933H54.9155V22.0191H55.5843V22.5173H55.6059C55.6275 22.4736 55.6922 22.4089 55.7353 22.3437C55.8001 22.279 55.8648 22.2138 55.9727 22.149C56.059 22.0838 56.1673 22.0407 56.2968 21.997C56.4262 21.9539 56.5557 21.9323 56.7067 21.9323C57.2029 21.9323 57.5481 22.1275 57.7638 22.5173C57.807 22.4521 57.8717 22.3873 57.9364 22.3221C58.0016 22.2574 58.0879 22.1922 58.1958 22.1275C58.3037 22.0622 58.4115 22.0191 58.5194 21.9975C58.6488 21.9539 58.7783 21.9539 58.9293 21.9539C59.8139 21.9539 60.2674 22.4736 60.2674 23.5131V26.4585H59.5334V23.6431C59.5334 23.2753 59.4687 23.0154 59.3392 22.8634C59.2098 22.7119 59.0156 22.6251 58.7783 22.6251C58.5625 22.6251 58.39 22.6688 58.2605 22.7771C58.1311 22.885 58.0232 22.9718 57.9364 23.0586C57.958 23.1233 57.958 23.1885 57.958 23.2748V26.4585L57.2029 26.3933ZM62.0586 26.3933H61.3245V22.0191H62.0586V26.3933ZM61.6913 20.958C61.5403 20.958 61.4108 20.9144 61.3245 20.806C61.2382 20.6982 61.1951 20.5898 61.1951 20.4167C61.1951 20.2431 61.2382 20.1348 61.3245 20.0485C61.4108 19.9617 61.5403 19.8965 61.6913 19.8965C61.8428 19.8965 61.9507 19.9401 62.0586 20.0485C62.1449 20.1348 62.188 20.2647 62.188 20.4162C62.188 20.5682 62.1449 20.6982 62.0586 20.806C61.9723 20.9144 61.8428 20.958 61.6913 20.958ZM65.5761 26.3933V23.5783C65.5761 23.2101 65.5109 22.9502 65.3815 22.7771C65.252 22.6036 65.0579 22.5388 64.8206 22.5388C64.6048 22.5388 64.4106 22.6036 64.2812 22.7119C64.1302 22.8198 64.0223 22.9286 63.936 23.037V26.4153H63.202V22.0407H63.8713V22.5388H63.8929C63.9144 22.4952 63.9576 22.4521 64.0007 22.3868C64.0654 22.3221 64.1302 22.2574 64.238 22.1922C64.3459 22.1275 64.4538 22.0622 64.5832 22.0191C64.7127 21.9755 64.8637 21.9539 65.0363 21.9539C65.2305 21.9539 65.4031 21.9755 65.5546 22.0407C65.7056 22.1059 65.8566 22.1927 65.9645 22.3221C66.0723 22.4521 66.1586 22.6251 66.2234 22.8203C66.2881 23.0149 66.3097 23.2748 66.3097 23.5783V26.4585L65.5761 26.3933ZM68.144 26.3933H67.41V22.0191H68.144V26.3933ZM67.7772 20.958C67.6262 20.958 67.4967 20.9144 67.41 20.806C67.3237 20.7197 67.2805 20.5898 67.2805 20.4167C67.2805 20.2431 67.3237 20.1348 67.41 20.0485C67.4967 19.9617 67.6262 19.8965 67.7772 19.8965C67.9282 19.8965 68.0361 19.9401 68.144 20.0485C68.2303 20.1348 68.2734 20.2647 68.2734 20.4162C68.2734 20.5682 68.2303 20.6982 68.144 20.806C68.0577 20.9144 67.9282 20.958 67.7772 20.958ZM71.1649 22.9071C71.1217 22.8634 71.0354 22.7771 70.906 22.6904C70.7591 22.592 70.5865 22.5391 70.4098 22.5383C70.2156 22.5383 70.0646 22.5825 69.9567 22.6688C69.9074 22.7069 69.868 22.7563 69.8418 22.8127C69.8155 22.8692 69.8031 22.9311 69.8057 22.9934C69.8057 23.1669 69.8488 23.2969 69.9351 23.4052C70.0214 23.5131 70.1724 23.6215 70.3666 23.7514L70.6471 23.9245C70.9491 24.0981 71.1869 24.2927 71.3379 24.4879C71.5105 24.6825 71.5968 24.964 71.5968 25.2675C71.5968 25.6137 71.4674 25.9172 71.2301 26.155C70.9923 26.3933 70.6471 26.5016 70.194 26.5016C70.0214 26.5016 69.8704 26.4801 69.7409 26.4585C69.6233 26.4224 69.508 26.379 69.3958 26.3286C69.3066 26.2826 69.22 26.2319 69.1364 26.1766C69.0717 26.1118 69.0069 26.0687 68.9638 26.025L69.3095 25.4406L69.4389 25.5705C69.4821 25.6137 69.5468 25.6573 69.6331 25.7004C69.6978 25.7436 69.7841 25.7872 69.8704 25.8083C69.9567 25.8304 70.0646 25.8525 70.194 25.8525C70.4098 25.8525 70.5823 25.8083 70.6902 25.7004C70.7981 25.5926 70.8628 25.4837 70.8628 25.3538C70.8628 25.2459 70.8412 25.1591 70.8197 25.0939C70.8031 25.0148 70.7567 24.9452 70.6902 24.8993C70.6471 24.834 70.5608 24.7693 70.4961 24.7257C70.4313 24.6825 70.3235 24.6178 70.2156 24.5526L69.9351 24.3795C69.6547 24.2059 69.4389 24.0113 69.2874 23.8166C69.1364 23.6215 69.0501 23.3616 69.0501 23.0586C69.0501 22.885 69.0717 22.7551 69.1364 22.6036C69.2011 22.4736 69.2874 22.3437 69.3958 22.2574C69.5036 22.149 69.6547 22.0838 69.8057 22.0191C69.9567 21.9539 70.1293 21.9323 70.3019 21.9323C70.4745 21.9323 70.6255 21.9539 70.7334 21.9755C70.8628 21.9975 70.9491 22.0622 71.057 22.1054C71.1433 22.149 71.2085 22.2138 71.2732 22.2574C71.3266 22.2891 71.3712 22.3338 71.4027 22.3873L71.1649 22.9071ZM74.3372 22.6251H73.388V25.0508C73.388 25.3538 73.4311 25.5705 73.4958 25.6784C73.5821 25.7872 73.7116 25.852 73.9058 25.852C74.0136 25.852 74.1215 25.8304 74.1862 25.8088C74.2725 25.7872 74.3157 25.7436 74.3588 25.722L74.4667 26.307C74.4451 26.3286 74.3588 26.3717 74.251 26.4149C74.1431 26.4585 73.9921 26.5016 73.7979 26.5016C73.4311 26.5016 73.1507 26.3938 72.956 26.1986C72.7618 26.0035 72.6755 25.6352 72.6755 25.1591V22.6251H72.1578V22.1275L72.6755 22.0191L72.7618 20.806H73.4096V22.0191H74.4667L74.3372 22.6251ZM77.9196 23.4915C77.9196 23.6867 77.9196 23.8382 77.898 23.9897C77.898 24.1196 77.8764 24.2496 77.8548 24.3575H75.6322C75.6538 24.8772 75.7616 25.2454 75.9558 25.5053C76.15 25.7436 76.4304 25.8735 76.7972 25.8735C76.9271 25.8735 77.035 25.852 77.1429 25.8304C77.2508 25.8088 77.3371 25.7652 77.4018 25.7225C77.4881 25.6784 77.5312 25.6352 77.5959 25.5921L77.7038 25.4842L77.9843 26.004L77.8548 26.1334C77.7901 26.1986 77.7038 26.2418 77.6175 26.307C77.5096 26.3717 77.3802 26.4149 77.2292 26.4585C77.0782 26.5016 76.9056 26.5232 76.6893 26.5232C76.4089 26.5232 76.1716 26.4801 75.9558 26.3933C75.7338 26.3011 75.5403 26.1517 75.3949 25.9603C75.226 25.7409 75.1015 25.4908 75.0281 25.2239C74.9413 24.9208 74.8982 24.5742 74.8982 24.1628C74.8982 23.773 74.9413 23.4268 75.0281 23.1449C75.1144 22.8634 75.2439 22.6251 75.3949 22.4521C75.5459 22.279 75.7185 22.1275 75.9127 22.0407C76.1168 21.952 76.3374 21.9077 76.5599 21.9107C76.9703 21.9107 77.3155 22.0407 77.5528 22.3005C77.7901 22.582 77.898 22.9723 77.9196 23.4915ZM76.5167 22.5173C76.2578 22.5173 76.0421 22.6251 75.8911 22.8419C75.7401 23.0586 75.6322 23.3832 75.6106 23.7946H77.2076C77.2076 23.773 77.2292 23.7298 77.2292 23.6646V23.47C77.2292 23.1669 77.1645 22.9286 77.035 22.7551C76.9056 22.582 76.7541 22.5173 76.5167 22.5173ZM80.8115 22.6688C80.7899 22.6472 80.7468 22.6472 80.7036 22.6251C80.6389 22.6036 80.5521 22.6036 80.4658 22.6036C80.2285 22.6036 80.0559 22.6688 79.9265 22.7987C79.797 22.9286 79.7107 23.0586 79.646 23.2101V26.4364H78.9125V22.0627H79.5813V22.6472H79.6028C79.6244 22.5604 79.6676 22.4736 79.7107 22.3873C79.7539 22.3005 79.8186 22.2353 79.8833 22.1706C79.9696 22.1054 80.0343 22.0627 80.1422 22.0186C80.2501 21.9755 80.3579 21.9539 80.509 21.9539C80.6168 21.9539 80.7036 21.9539 80.7683 21.9755C80.8331 21.9975 80.8762 21.9975 80.9194 22.0191L80.8115 22.6688ZM82.2785 26.3933H81.545V22.0191H82.2785V26.3933ZM81.9118 20.958C81.7608 20.958 81.6313 20.9144 81.545 20.806C81.4587 20.6982 81.4156 20.5898 81.4156 20.4167C81.4156 20.2431 81.4587 20.1348 81.545 20.0485C81.6313 19.9617 81.7608 19.8965 81.9118 19.8965C82.0628 19.8965 82.1707 19.9401 82.257 20.0485C82.3433 20.1564 82.3864 20.2647 82.3864 20.4162C82.3864 20.5682 82.3433 20.6982 82.257 20.806C82.1707 20.9144 82.0628 20.958 81.9118 20.958ZM86.4654 26.3933H85.7961V25.8951H85.7745C85.753 25.9387 85.7098 25.9819 85.6667 26.0471C85.602 26.1118 85.5372 26.177 85.4294 26.2418C85.3431 26.307 85.2136 26.3717 85.0842 26.4149C84.9376 26.4608 84.7847 26.4828 84.6311 26.4801C84.4369 26.4801 84.2639 26.4585 84.1128 26.3933C83.9625 26.3324 83.8292 26.2358 83.7245 26.1118C83.6166 25.9819 83.5303 25.8088 83.4656 25.6137C83.4009 25.419 83.3793 25.1591 83.3793 24.8556V21.9759H84.1128V24.7909C84.1128 25.1586 84.1776 25.4185 84.2854 25.5705C84.3933 25.7225 84.588 25.8088 84.8469 25.8088C85.0626 25.8088 85.2352 25.7652 85.3862 25.6568C85.5372 25.5489 85.6451 25.4406 85.7314 25.3538V21.9975H86.4654V26.3933ZM89.8962 26.3933V23.5783C89.8962 23.2101 89.8531 22.9502 89.7452 22.7987C89.6373 22.6467 89.4863 22.5604 89.249 22.5604C89.1195 22.5604 89.0117 22.582 88.9254 22.6036C88.8408 22.6264 88.7607 22.663 88.6881 22.7119C88.6182 22.7557 88.5531 22.8066 88.4939 22.8639C88.4292 22.9286 88.386 22.9718 88.3644 23.0149V26.3933H87.6304V22.0191H88.2997V22.5173H88.3213C88.3429 22.4736 88.4076 22.4089 88.4507 22.3437C88.5155 22.279 88.5802 22.2138 88.6881 22.149C88.7743 22.0838 88.8822 22.0407 89.0117 21.997C89.1411 21.9539 89.2705 21.9323 89.4216 21.9323C89.9178 21.9323 90.2635 22.1275 90.4792 22.5173C90.5224 22.4521 90.5871 22.3873 90.6518 22.3221C90.7165 22.2574 90.8028 22.1922 90.9107 22.1275C91.0186 22.0622 91.1264 22.0191 91.2343 21.9975C91.3422 21.9755 91.4932 21.9539 91.6442 21.9539C92.5292 21.9539 92.9823 22.4736 92.9823 23.5131V26.4585H92.2488V23.6431C92.2488 23.2753 92.1841 23.0154 92.0546 22.8634C91.9247 22.7119 91.7305 22.6251 91.4932 22.6251C91.2774 22.6251 91.1049 22.6688 90.9754 22.7771C90.846 22.885 90.7381 22.9718 90.6518 23.0586C90.6518 23.1233 90.6734 23.1885 90.6734 23.2748V26.4585L89.8962 26.3933ZM32.5587 31.8295H31.6742V35.6192H30.9397V31.829H30.4219V31.3313L30.9397 31.2235V30.334C30.9397 30.0962 30.9612 29.9011 31.0475 29.728C31.1025 29.5733 31.1909 29.4327 31.3064 29.3161C31.4143 29.2082 31.5442 29.1214 31.6952 29.0783C31.8425 29.0355 31.995 29.0135 32.1483 29.0131C32.2993 29.0131 32.4503 29.0347 32.5582 29.0783C32.6661 29.1214 32.7308 29.1646 32.774 29.1862L32.6229 29.7927C32.5798 29.7711 32.5366 29.7495 32.4719 29.7064C32.3956 29.6795 32.3155 29.6648 32.2346 29.6628C32.062 29.6628 31.9326 29.7064 31.8247 29.8363C31.7168 29.9658 31.6952 30.1394 31.6952 30.4424V31.222H32.6877L32.5582 31.8285L32.5587 31.8295ZM36.3352 35.6192H35.6664V35.121H35.6448C35.6232 35.1642 35.5801 35.2078 35.5154 35.2726C35.4454 35.348 35.3656 35.4136 35.278 35.4677C35.1913 35.5324 35.0623 35.5976 34.9324 35.6408C34.7858 35.6866 34.6328 35.7084 34.4793 35.7055C34.2851 35.7055 34.1125 35.6839 33.9615 35.6192C33.8111 35.5582 33.6778 35.4614 33.5732 35.3373C33.4653 35.2078 33.3785 35.0343 33.3138 34.8396C33.2491 34.6444 33.2275 34.3846 33.2275 34.0816V31.2014H33.9615V34.0163C33.9615 34.3846 34.0262 34.6444 34.1341 34.796C34.2636 34.948 34.4362 35.0343 34.6951 35.0343C34.9108 35.0343 35.0834 34.9911 35.2344 34.8827C35.3859 34.7749 35.4938 34.666 35.5801 34.5582V31.2014H36.3136L36.3352 35.6192ZM34.5225 29.9663C34.5225 30.0967 34.4793 30.2261 34.393 30.3129C34.3538 30.3536 34.3069 30.386 34.2551 30.4083C34.2032 30.4306 34.1474 30.4423 34.091 30.4429C34.0345 30.4423 33.9787 30.4306 33.9269 30.4083C33.875 30.386 33.8281 30.3536 33.7889 30.3129C33.7026 30.2266 33.6595 30.1183 33.6595 29.9668C33.6595 29.8148 33.7026 29.7069 33.7889 29.6201C33.8281 29.5795 33.875 29.5471 33.9269 29.5247C33.9787 29.5024 34.0345 29.4907 34.091 29.4902C34.1988 29.4902 34.3067 29.5333 34.393 29.6201C34.4793 29.7064 34.5225 29.8363 34.5225 29.9663ZM35.9248 29.9663C35.9248 30.0967 35.8821 30.2261 35.7958 30.3129C35.7566 30.3536 35.7097 30.386 35.6579 30.4083C35.606 30.4306 35.5502 30.4423 35.4938 30.4429C35.4373 30.4424 35.3814 30.4307 35.3294 30.4084C35.2775 30.3861 35.2305 30.3536 35.1913 30.3129C35.105 30.2266 35.0618 30.1183 35.0618 29.9668C35.0618 29.8148 35.105 29.7069 35.1913 29.6201C35.2305 29.5794 35.2775 29.547 35.3294 29.5247C35.3814 29.5023 35.4373 29.4906 35.4938 29.4902C35.6017 29.4902 35.7095 29.5333 35.7958 29.6201C35.8821 29.7064 35.9248 29.8363 35.9248 29.9663ZM39.3997 31.8722C39.3781 31.8506 39.335 31.8506 39.2918 31.829C39.2271 31.8074 39.1408 31.8074 39.0545 31.8074C38.8167 31.8074 38.6441 31.8722 38.5152 32.0021C38.3852 32.132 38.2994 32.262 38.2342 32.414V35.6403H37.5007V31.2656H38.1695V31.8506H38.1911C38.2126 31.7638 38.2558 31.6775 38.2989 31.6123C38.3421 31.5255 38.4068 31.4603 38.4715 31.3956C38.5362 31.3308 38.6225 31.2877 38.7304 31.2441C38.8383 31.2009 38.9462 31.2009 39.0972 31.2009C39.205 31.2009 39.2918 31.2225 39.3566 31.2225C39.4213 31.2441 39.4644 31.2441 39.5076 31.2656L39.3997 31.8722ZM45.291 30.9195C45.291 31.1357 45.2694 31.3308 45.2047 31.5039C45.1615 31.6775 45.0752 31.8074 44.9889 31.9374C44.9084 32.0586 44.7966 32.1559 44.6653 32.2188C44.5399 32.2855 44.4099 32.3433 44.2765 32.3919V32.4135C44.4491 32.435 44.6001 32.5003 44.73 32.5866C44.881 32.6733 44.9889 32.7817 45.0968 32.9116C45.2047 33.0416 45.2909 33.1931 45.3557 33.3662C45.4204 33.5397 45.442 33.7344 45.442 33.9296C45.442 34.1679 45.3988 34.4057 45.3125 34.6224C45.2262 34.8391 45.0968 35.0122 44.9242 35.1637C44.7516 35.3157 44.5138 35.4236 44.2549 35.5104C43.9744 35.5971 43.6508 35.6403 43.2841 35.6403H42.0107V29.3387H43.2193C43.5861 29.3387 43.9097 29.3818 44.1686 29.4465C44.4275 29.5333 44.6437 29.6417 44.8158 29.7716C44.9889 29.9015 45.1184 30.0746 45.1831 30.2698C45.2478 30.4644 45.291 30.6812 45.291 30.9195ZM44.4922 30.941C44.4922 30.638 44.3843 30.3997 44.1902 30.2266C43.9744 30.0315 43.6508 29.9447 43.2193 29.9447H42.8089V32.1105H43.2193C43.6508 32.1105 43.9744 32.0026 44.1902 31.8074C44.3843 31.5907 44.4922 31.3093 44.4922 30.941ZM44.6217 33.8428C44.6217 33.4961 44.5138 33.2362 44.298 33.0416C44.0823 32.8464 43.7587 32.7386 43.3488 32.7386H42.8094V34.9475H43.3056C43.7803 34.9475 44.1039 34.8607 44.3196 34.6655C44.5354 34.4709 44.6001 34.211 44.6217 33.8428ZM47.1684 35.6187H46.4339V31.2441H47.1679L47.1684 35.6187ZM46.8016 30.1614C46.6501 30.1614 46.5207 30.1183 46.4344 30.0094C46.3481 29.9015 46.3049 29.7937 46.3049 29.6201C46.3049 29.4465 46.3481 29.3387 46.4344 29.2519C46.5207 29.1651 46.6501 29.0999 46.8016 29.0999C46.9527 29.0999 47.0605 29.144 47.1468 29.2519C47.2331 29.3597 47.2763 29.4686 47.2763 29.6196C47.2763 29.7716 47.2331 29.9015 47.1468 30.0099C47.0605 30.1178 46.9527 30.1614 46.8016 30.1614ZM49.0243 34.5792C49.0243 34.7523 49.0458 34.8823 49.1106 34.969C49.1537 35.0338 49.24 35.0769 49.3695 35.0769C49.4342 35.0769 49.4989 35.0769 49.5421 35.0553C49.5852 35.0338 49.6284 35.0338 49.6499 35.0122L49.7147 35.5535C49.6715 35.5751 49.6068 35.5971 49.5205 35.6187C49.4126 35.6403 49.2832 35.6619 49.1321 35.6619C48.8948 35.6619 48.6791 35.5751 48.5276 35.4236C48.3766 35.2721 48.3118 34.9906 48.3118 34.6008V29.1004L49.0458 29.0136L49.0243 34.5792ZM50.1677 33.4745C50.1677 33.02 50.2324 32.6518 50.3403 32.3703C50.4487 32.0668 50.5997 31.829 50.7939 31.6554C50.9714 31.4813 51.185 31.3483 51.4195 31.2656C51.6568 31.1793 51.8726 31.1578 52.1099 31.1578C52.2393 31.1578 52.3693 31.1793 52.4771 31.1793C52.585 31.2009 52.6713 31.2225 52.736 31.2656V29.1651L53.4696 29.0788V35.6187H52.8007V35.1637H52.7576C52.736 35.2073 52.7145 35.2505 52.6497 35.3157C52.6066 35.3804 52.5419 35.4451 52.4556 35.5104C52.3693 35.5751 52.2609 35.6182 52.1315 35.6834C51.9849 35.7294 51.8319 35.7514 51.6784 35.7487C51.4627 35.7487 51.2685 35.705 51.0959 35.6187C50.9062 35.5328 50.7425 35.3983 50.6213 35.2289C50.4668 35.0225 50.3564 34.7865 50.2972 34.5356C50.2109 34.2326 50.1677 33.8859 50.1677 33.4745ZM51.8941 35.0774C52.002 35.0774 52.1099 35.0553 52.1962 35.0338C52.2825 35.0122 52.3693 34.969 52.434 34.9259C52.4987 34.8823 52.5634 34.8391 52.6066 34.7739C52.6497 34.7307 52.6929 34.6876 52.7145 34.644V31.9374C52.6418 31.8884 52.5617 31.8518 52.4771 31.829C52.3714 31.801 52.2625 31.7863 52.153 31.7854C51.9804 31.7854 51.8294 31.8074 51.6784 31.8722C51.5274 31.9374 51.3979 32.0242 51.2901 32.1536C51.1822 32.2835 51.0959 32.4566 51.0312 32.6733C50.9576 32.9266 50.9212 33.1892 50.9233 33.453C50.9233 33.756 50.9449 34.0159 51.0096 34.211C51.0743 34.4057 51.139 34.5787 51.2253 34.7092C51.3116 34.8391 51.4195 34.9254 51.5274 34.969C51.6353 35.0122 51.7647 35.0558 51.8941 35.0774ZM57.6344 35.6187H56.9656V35.1206H56.944C56.9224 35.1637 56.8793 35.2073 56.8361 35.2721C56.7661 35.3475 56.6863 35.4131 56.5988 35.4672C56.5125 35.5319 56.3831 35.5971 56.2536 35.6403C56.1069 35.6861 55.9537 35.7079 55.8001 35.705C55.6059 35.705 55.4333 35.6834 55.2823 35.6187C55.1318 35.5577 54.9986 35.4609 54.8939 35.3368C54.7861 35.2073 54.6998 35.0338 54.6351 34.8391C54.5703 34.644 54.5488 34.3841 54.5488 34.0811V31.2009H55.2823V34.0159C55.2823 34.3841 55.347 34.644 55.4549 34.7955C55.5627 34.9475 55.7569 35.0338 55.9942 35.0338C56.2105 35.0338 56.3831 34.9906 56.5341 34.8823C56.6851 34.7744 56.793 34.6655 56.8793 34.5577V31.2009H57.6128L57.6344 35.6187ZM61.1519 35.6187V32.8033C61.1519 32.4355 61.0872 32.1757 60.9578 32.0021C60.8283 31.829 60.6342 31.7638 60.3968 31.7638C60.1811 31.7638 59.9869 31.8074 59.857 31.9374C59.706 32.0452 59.5981 32.1536 59.5118 32.262V35.6403H58.7783V31.2656H59.4471V31.7638H59.4687C59.4902 31.7206 59.5334 31.6775 59.5765 31.6123C59.6197 31.5476 59.706 31.4823 59.8139 31.4176C59.9222 31.3524 60.0301 31.2877 60.1595 31.2441C60.289 31.2009 60.44 31.1793 60.6126 31.1793C60.8068 31.1793 60.9794 31.2009 61.1519 31.2656C61.303 31.3308 61.4324 31.4176 61.5619 31.5476C61.6697 31.6775 61.7565 31.8506 61.8212 32.0452C61.886 32.2404 61.9075 32.5003 61.9075 32.8033V35.6834L61.1519 35.6187ZM66.1371 31.8074H65.5977C65.7272 32.0452 65.8135 32.3051 65.8135 32.5871C65.8135 32.8249 65.7703 33.02 65.7056 33.2147C65.6193 33.4098 65.533 33.5613 65.3815 33.6913C65.252 33.8212 65.0794 33.908 64.9068 33.9943C64.7127 34.0595 64.5185 34.1026 64.3028 34.1026H64.087C64.0223 34.1242 63.936 34.1894 63.8497 34.2546C63.7634 34.3194 63.7418 34.4057 63.7418 34.5145C63.7418 34.6008 63.785 34.6876 63.8497 34.7303C63.9144 34.7955 64.0439 34.8175 64.1949 34.8175H64.7558C64.9716 34.8175 65.1442 34.8391 65.3383 34.8823C65.5109 34.9254 65.6624 34.9901 65.7919 35.0774C65.9213 35.1637 66.0292 35.2936 66.0939 35.4451C66.1586 35.5971 66.2018 35.7702 66.2018 35.9649C66.2018 36.2032 66.1586 36.4199 66.0508 36.6146C65.9429 36.8097 65.8135 36.9828 65.6193 37.1127C65.4246 37.2427 65.2089 37.3726 64.95 37.4378C64.671 37.5264 64.3797 37.5703 64.087 37.5678C63.6119 37.5678 63.2667 37.4594 63.0294 37.2642C62.7921 37.0696 62.6626 36.7661 62.6626 36.3768C62.6626 36.2032 62.6842 36.0733 62.7489 35.9433C62.8137 35.8134 62.8784 35.7271 62.9647 35.6403C63.051 35.5535 63.1157 35.4883 63.202 35.4236C63.2883 35.3804 63.353 35.3373 63.3962 35.2936V35.2721C63.202 35.1421 63.1157 34.9254 63.1157 34.6655C63.1157 34.5577 63.1373 34.4493 63.1804 34.3625C63.2236 34.2757 63.2883 34.2105 63.3314 34.1458C63.3962 34.1026 63.4393 34.0379 63.504 34.0159C63.5688 33.9943 63.6119 33.9511 63.6335 33.9511V33.9296C63.4177 33.8212 63.2236 33.6697 63.0941 33.4314C62.9647 33.2147 62.8784 32.9332 62.8784 32.5866C62.8784 32.3488 62.9215 32.132 62.9862 31.9374C63.0725 31.7422 63.1804 31.5907 63.3099 31.4823C63.4393 31.3524 63.5903 31.2656 63.785 31.2009C63.9576 31.1357 64.1517 31.1141 64.3675 31.1141C64.5832 31.1141 64.7774 31.1578 64.95 31.2225H66.2881L66.1371 31.8074ZM64.087 35.4672C63.9576 35.4672 63.8497 35.4672 63.7418 35.4451C63.6987 35.4667 63.634 35.5104 63.5903 35.5535C63.5472 35.5971 63.4825 35.6403 63.4393 35.7055C63.3962 35.7702 63.353 35.835 63.3314 35.9217C63.3099 36.0085 63.2883 36.0948 63.2883 36.2032C63.2883 36.6798 63.5472 36.896 64.0654 36.896C64.5185 36.896 64.8421 36.8097 65.0579 36.6361C65.2736 36.4631 65.3815 36.2684 65.3815 36.0301C65.3815 35.7918 65.3168 35.6619 65.1873 35.5751C65.0579 35.4888 64.8637 35.4451 64.648 35.4451L64.087 35.4672ZM65.0794 32.5871C65.0794 32.262 64.9931 32.0452 64.8637 31.9153C64.7211 31.7886 64.5366 31.7193 64.3459 31.7206C64.1302 31.7206 63.9576 31.7854 63.8066 31.9153C63.6555 32.0452 63.5688 32.2835 63.5688 32.5871C63.5688 32.8901 63.6555 33.1284 63.8066 33.2583C63.9576 33.3882 64.1302 33.453 64.3243 33.453C64.5401 33.453 64.7127 33.3882 64.8637 33.2583C64.9931 33.1284 65.0579 32.9121 65.0794 32.5871ZM33.7674 44.8221H33.0981V44.3239H33.0765C33.0549 44.3676 33.0118 44.4107 32.947 44.4759C32.8823 44.5407 32.8176 44.6054 32.7097 44.6706C32.6234 44.7353 32.494 44.8005 32.3645 44.8437C32.218 44.8896 32.065 44.9116 31.9115 44.9089C31.7173 44.9089 31.5447 44.8873 31.3932 44.8221C31.2428 44.7612 31.1096 44.6646 31.0049 44.5407C30.897 44.4107 30.8107 44.2376 30.746 44.0425C30.6813 43.8478 30.6597 43.588 30.6597 43.2844V40.4043H31.3932V43.2197C31.3932 43.5875 31.4579 43.8473 31.5658 43.9993C31.6957 44.1508 31.8683 44.2376 32.1272 44.2376C32.343 44.2376 32.5156 44.194 32.6666 44.0856C32.8176 43.9778 32.9255 43.8694 33.0118 43.761V40.4043H33.7458L33.7674 44.8221ZM37.2849 44.8221V42.0067C37.2849 41.6389 37.2202 41.379 37.0903 41.2055C36.9608 41.0324 36.7882 40.9672 36.5294 40.9672C36.3136 40.9672 36.1194 41.0108 35.99 41.1408C35.8602 41.2322 35.744 41.3414 35.6448 41.4653V44.8437H34.9108V40.4695H35.5801V40.9672H35.6017C35.6232 40.924 35.6664 40.8809 35.7095 40.8157C35.7527 40.7509 35.839 40.6857 35.9468 40.621C36.0331 40.5558 36.1626 40.4911 36.292 40.4479C36.4215 40.4043 36.5725 40.3827 36.7451 40.3827C36.9393 40.3827 37.1123 40.4043 37.2629 40.4695C37.4144 40.5342 37.5654 40.621 37.6733 40.7509C37.7811 40.8809 37.8674 41.054 37.9322 41.2491C37.9969 41.4438 38.0185 41.7036 38.0185 42.0072V44.8868L37.2849 44.8221ZM38.9246 42.7C38.9246 42.245 38.9893 41.8772 39.0972 41.5953C39.205 41.3138 39.3566 41.054 39.5507 40.8809C39.7233 40.7073 39.9391 40.5558 40.1764 40.4911C40.4137 40.4043 40.6294 40.3832 40.8668 40.3832C40.9962 40.3832 41.1261 40.3832 41.234 40.4043C41.3419 40.4259 41.4282 40.4479 41.4929 40.4911V38.39L42.2264 38.3032V44.8432H41.536V44.3887H41.5145C41.4929 44.4318 41.4713 44.475 41.4066 44.5402C41.3635 44.6049 41.2987 44.6701 41.2124 44.7348C41.1261 44.8 41.0178 44.8432 40.8888 44.9084C40.7421 44.9542 40.589 44.9761 40.4353 44.9731C40.2195 44.9731 40.0254 44.93 39.8528 44.8432C39.6586 44.7564 39.5076 44.627 39.3566 44.4534C39.2023 44.2471 39.0922 44.0112 39.0329 43.7605C38.9617 43.4113 38.9251 43.0564 38.9246 42.7ZM40.651 44.2808C40.7589 44.2808 40.8668 44.2592 40.9531 44.2376C41.0394 44.2156 41.1261 44.1724 41.1909 44.1293C41.2556 44.0856 41.3203 44.0425 41.3635 43.9773C41.4066 43.9341 41.4498 43.891 41.4713 43.8478V41.1408C41.3987 41.0918 41.3185 41.0552 41.234 41.0324C41.1284 41.0045 41.0196 40.99 40.9104 40.9892C40.7373 40.9892 40.5868 41.0108 40.4353 41.0755C40.2843 41.1407 40.1548 41.2275 40.0469 41.3575C39.9391 41.4869 39.8528 41.6605 39.788 41.8772C39.7233 42.0934 39.7017 42.3533 39.7017 42.6568C39.7017 42.9599 39.7233 43.2197 39.788 43.4144C39.8312 43.6095 39.9175 43.7826 40.0038 43.9126C40.0901 44.0425 40.198 44.1293 40.3058 44.1724C40.4137 44.2156 40.5216 44.2808 40.651 44.2808ZM45.4204 44.8221V38.5205H48.5065L48.4629 39.1481H46.2186V41.4869H48.2903V42.115H46.2186V44.8221H45.4204ZM49.0674 42.6353C49.0674 42.2234 49.1106 41.8767 49.2184 41.5958C49.3047 41.2923 49.4342 41.054 49.6068 40.8809C49.7794 40.7073 49.952 40.5558 50.1677 40.469C50.3802 40.3825 50.6076 40.3386 50.837 40.3396C51.0743 40.3396 51.3116 40.3827 51.5058 40.4695C51.7215 40.5558 51.8941 40.6857 52.0452 40.8809C52.1962 41.0755 52.3261 41.3138 52.4124 41.5953C52.4987 41.8772 52.5419 42.245 52.5419 42.6348C52.5419 43.0246 52.4987 43.3928 52.4124 43.6958C52.3359 43.9594 52.2032 44.2033 52.0236 44.4107C51.8772 44.596 51.6833 44.7381 51.4627 44.8221C51.2469 44.9089 51.0312 44.952 50.7939 44.952C50.5565 44.952 50.3187 44.9089 50.1246 44.8221C49.9102 44.7373 49.7235 44.5947 49.5852 44.4102C49.4207 44.1963 49.2964 43.9542 49.2184 43.6958C49.1106 43.3928 49.0674 43.0466 49.0674 42.6353ZM51.7647 42.6353C51.7647 42.0503 51.6784 41.6169 51.5058 41.357C51.3332 41.0971 51.0959 40.9677 50.7939 40.9677C50.4918 40.9677 50.254 41.0971 50.0814 41.357C49.9088 41.6169 49.8225 42.0503 49.8225 42.6348C49.8225 43.2197 49.9088 43.6311 50.0814 43.891C50.254 44.1509 50.4918 44.2808 50.7939 44.2808C51.0959 44.2808 51.3332 44.1509 51.5058 43.891C51.6784 43.6311 51.7647 43.2197 51.7647 42.6353ZM55.3686 41.0971C55.347 41.0755 55.3039 41.0755 55.2607 41.054C55.196 41.0324 55.1097 41.0324 55.0234 41.0324C54.7861 41.0324 54.6135 41.0971 54.484 41.227C54.3643 41.3445 54.2689 41.4845 54.2036 41.6389V44.8653H53.4696V40.4474H54.1384V41.0324H54.1599C54.1815 40.9456 54.2251 40.8593 54.2683 40.7725C54.3114 40.6857 54.3762 40.6205 54.4409 40.5558C54.5056 40.4911 54.5919 40.4479 54.6998 40.4043C54.8076 40.3611 54.9155 40.3611 55.0665 40.3611C55.1744 40.3611 55.2607 40.3611 55.3254 40.3827C55.3902 40.4043 55.4333 40.4043 55.4764 40.4259L55.3686 41.0971ZM57.958 41.3354C57.9148 41.2923 57.8285 41.2055 57.6991 41.1192C57.5696 41.0324 57.397 40.9892 57.2029 40.9892C57.0087 40.9892 56.8577 41.0324 56.7498 41.1192C56.7006 41.1573 56.6612 41.2067 56.6349 41.2631C56.6086 41.3196 56.5962 41.3815 56.5988 41.4438C56.5988 41.6169 56.6419 41.7468 56.7498 41.8556C56.8361 41.9635 56.9871 42.0719 57.1813 42.2018L57.4618 42.3749C57.7638 42.5485 58.0016 42.7431 58.1742 42.9383C58.3468 43.1329 58.4331 43.3928 58.4331 43.7179C58.4331 44.0641 58.3037 44.3676 58.0663 44.5838C57.8285 44.8221 57.4833 44.9305 57.0303 44.9305C56.8783 44.9288 56.7267 44.9142 56.5772 44.8868C56.4478 44.8437 56.3183 44.8005 56.232 44.7569C56.1429 44.7111 56.0563 44.6605 55.9727 44.6054C55.9079 44.5407 55.8432 44.4975 55.8001 44.4539L56.1457 43.8694L56.2752 43.9993C56.3183 44.0425 56.3831 44.1072 56.4694 44.1509C56.5341 44.194 56.6204 44.2376 56.7067 44.2587C56.793 44.2808 56.9008 44.3024 57.0303 44.3024C57.246 44.3024 57.4186 44.2592 57.5265 44.1504C57.6344 44.0425 57.6991 43.9346 57.6991 43.8042C57.6991 43.6963 57.6775 43.6095 57.6559 43.5443C57.6393 43.4652 57.593 43.3956 57.5265 43.3497C57.4833 43.2844 57.397 43.2413 57.3323 43.1761C57.246 43.1329 57.1597 43.0682 57.0519 43.003L56.7714 42.8299C56.4909 42.6563 56.2968 42.4617 56.1242 42.2665C55.9727 42.0719 55.8864 41.812 55.8864 41.509C55.8864 41.3354 55.9079 41.1839 55.9727 41.054C56.0374 40.924 56.1242 40.7941 56.232 40.7073C56.3399 40.5994 56.4694 40.5342 56.6419 40.4695C56.793 40.4043 56.9656 40.3827 57.1382 40.3827C57.3107 40.3827 57.4618 40.4043 57.5696 40.4259C57.6991 40.4479 57.7854 40.5126 57.8933 40.5558C57.98 40.5994 58.0663 40.6642 58.1095 40.7078C58.1742 40.7509 58.2174 40.8157 58.2389 40.8372L57.958 41.3354ZM61.6697 41.2923L61.5834 41.2055C61.5403 41.1623 61.4971 41.1407 61.4324 41.0976C61.3677 41.054 61.303 41.0324 61.2167 40.9892C61.1255 40.9625 61.0312 40.9478 60.9362 40.9456C60.7852 40.9456 60.6342 40.9672 60.5047 41.0324C60.3753 41.0971 60.2458 41.1844 60.1595 41.3138C60.0517 41.4438 59.9869 41.6169 59.9222 41.812C59.8575 42.0287 59.8354 42.2665 59.8354 42.5485C59.8354 42.8731 59.8575 43.1329 59.9222 43.3712C59.9654 43.588 60.0517 43.761 60.138 43.891C60.2243 44.0209 60.3321 44.1077 60.4616 44.1724C60.591 44.2376 60.742 44.2592 60.8931 44.2592C61.1088 44.2592 61.2814 44.2156 61.4108 44.1509C61.5187 44.0641 61.605 43.9988 61.6697 43.9557L61.9723 44.4754C61.9507 44.5191 61.886 44.5622 61.8428 44.6054C61.7781 44.649 61.7129 44.7137 61.6266 44.7574C61.5218 44.808 61.4137 44.8512 61.303 44.8868C61.1535 44.9142 61.0019 44.9288 60.8499 44.9305C60.6126 44.9305 60.3753 44.8868 60.1595 44.8221C59.9442 44.7384 59.7518 44.6048 59.5981 44.4323C59.4471 44.2592 59.3176 44.0204 59.2313 43.7179C59.1451 43.4144 59.1019 43.0682 59.1019 42.6348C59.1019 42.2018 59.1451 41.8552 59.2745 41.5737C59.4039 41.2923 59.5334 41.054 59.706 40.8593C59.8717 40.6909 60.0701 40.5583 60.289 40.4695C60.4944 40.3849 60.7141 40.3408 60.9362 40.3396C61.1088 40.3396 61.2382 40.3611 61.3677 40.3827C61.4971 40.4043 61.605 40.4479 61.6913 40.4906C61.7781 40.5347 61.8428 40.5779 61.9075 40.6426C61.9723 40.6857 62.0154 40.7294 62.0586 40.7725L61.6697 41.2923ZM65.1442 44.8221V42.0067C65.1442 41.6389 65.0794 41.379 64.95 41.2055C64.8206 41.0324 64.6264 40.9672 64.3891 40.9672C64.1733 40.9672 63.9792 41.0108 63.8497 41.1408C63.6987 41.2486 63.5903 41.357 63.504 41.4653V44.8437H62.7705V38.3905L63.504 38.3037V40.9025H63.5256C63.5472 40.8593 63.5903 40.8157 63.6335 40.7505C63.6771 40.6857 63.7634 40.621 63.8497 40.5779C63.936 40.5126 64.0439 40.4695 64.1733 40.4259C64.3028 40.3827 64.4538 40.3611 64.6264 40.3611C65.0147 40.3611 65.3168 40.4911 65.533 40.7289C65.7487 40.9887 65.8782 41.4006 65.8782 41.9635V44.8437L65.1442 44.8221ZM70.043 44.8221H69.3742V44.3239H69.3526C69.331 44.3676 69.2874 44.4107 69.2443 44.4759C69.1795 44.5407 69.1148 44.6054 69.0069 44.6706C68.9206 44.7353 68.7912 44.8005 68.6618 44.8437C68.5152 44.8896 68.3622 44.9116 68.2087 44.9089C68.0145 44.9089 67.8419 44.8873 67.6909 44.8221C67.5404 44.7612 67.4069 44.6646 67.3021 44.5407C67.1942 44.4107 67.1079 44.2376 67.0432 44.0425C66.9785 43.8478 66.9569 43.588 66.9569 43.2844V40.4479H67.6909V43.2629C67.6909 43.6306 67.7556 43.8905 67.8635 44.0425C67.9714 44.1945 68.1655 44.2808 68.4029 44.2808C68.6186 44.2808 68.7912 44.2376 68.9422 44.1288C69.0932 44.0209 69.2011 43.9126 69.2874 43.8042V40.4479H70.0214L70.043 44.8221ZM73.5606 44.8221V42.0067C73.5606 41.6389 73.4959 41.379 73.3664 41.2055C73.237 41.0324 73.0423 40.9672 72.805 40.9672C72.5892 40.9672 72.3951 41.0108 72.2656 41.1408C72.1146 41.2486 72.0067 41.357 71.9204 41.4653V44.8437H71.1864V40.4479H71.8557V40.9456H71.8773C71.8989 40.9025 71.942 40.8593 71.9852 40.7941C72.0499 40.7294 72.1146 40.6642 72.2225 40.5994C72.3304 40.5342 72.4382 40.4695 72.5677 40.4259C72.6971 40.3827 72.8481 40.3611 73.0207 40.3611C73.2154 40.3611 73.388 40.3827 73.5606 40.4479C73.7116 40.5126 73.8626 40.5994 73.9705 40.7294C74.0784 40.8593 74.1647 41.0324 74.2294 41.227C74.2941 41.4222 74.3157 41.6821 74.3157 41.9851V44.8653L73.5606 44.8221ZM78.5236 41.0108H77.9843C78.1137 41.2491 78.2 41.509 78.2 41.7904C78.2 42.0287 78.1569 42.2234 78.0922 42.418C78.0059 42.6132 77.9196 42.7647 77.7685 42.8946C77.6391 43.0246 77.4665 43.1114 77.2939 43.1982C77.0997 43.2629 76.9056 43.306 76.6893 43.306H76.4736C76.3873 43.3281 76.3226 43.3928 76.2363 43.458C76.15 43.5227 76.1284 43.6095 76.1284 43.7179C76.1284 43.8042 76.1716 43.891 76.2363 43.9341C76.301 43.9993 76.4304 44.0209 76.5815 44.0209H77.1429C77.3586 44.0209 77.5528 44.0425 77.7254 44.0856C77.898 44.1293 78.049 44.194 78.1784 44.2808C78.3079 44.3676 78.4158 44.4975 78.4805 44.6485C78.5452 44.8005 78.5884 44.9736 78.5884 45.1683C78.5884 45.4066 78.5452 45.6233 78.4373 45.8184C78.3295 46.0131 78.2 46.1862 78.0059 46.3161C77.8333 46.4461 77.5959 46.5544 77.337 46.6412C77.0782 46.728 76.7756 46.7491 76.4736 46.7491C75.999 46.7491 75.6538 46.6412 75.4165 46.4461C75.1791 46.2514 75.0497 45.9484 75.0497 45.5586C75.0497 45.385 75.0713 45.2551 75.136 45.1251C75.2007 45.0173 75.2654 44.9089 75.3517 44.8221C75.438 44.7353 75.5027 44.6701 75.589 44.6054C75.6753 44.5622 75.7401 44.5191 75.7832 44.4754V44.4539C75.5891 44.3239 75.5027 44.1077 75.5027 43.8478C75.5027 43.7395 75.5243 43.6311 75.5675 43.5443C75.6106 43.4575 75.6753 43.3928 75.7185 43.3281C75.7832 43.2844 75.8264 43.2197 75.8911 43.1982C75.9558 43.1761 75.999 43.1329 76.0205 43.1329V43.1114C75.8048 43.0035 75.6106 42.8515 75.4812 42.6132C75.3517 42.3965 75.2654 42.115 75.2654 41.7468C75.2654 41.509 75.3086 41.2923 75.3733 41.0971C75.4596 40.9025 75.5675 40.7509 75.6969 40.6426C75.8264 40.5347 75.999 40.4259 76.1716 40.3611C76.3441 40.2959 76.5383 40.2743 76.7541 40.2743C76.9703 40.2743 77.1645 40.318 77.337 40.3827H78.6747L78.5236 41.0108ZM76.4952 44.6922C76.3657 44.6922 76.2578 44.6922 76.15 44.6706C76.0852 44.6922 76.0421 44.7353 75.999 44.7785C75.9558 44.8221 75.8911 44.8653 75.8695 44.9305C75.8264 44.9952 75.7832 45.0604 75.7616 45.1467C75.7351 45.2384 75.7206 45.3332 75.7185 45.4286C75.7185 45.9047 75.9774 46.1215 76.4952 46.1215C76.9487 46.1215 77.2723 46.0347 77.4881 45.8616C77.7038 45.6885 77.8117 45.4938 77.8117 45.2551C77.8117 45.0168 77.747 44.8873 77.6175 44.8005C77.4881 44.7137 77.3155 44.6706 77.0782 44.6706H76.4952V44.6922ZM77.4665 41.7904C77.4665 41.4653 77.4018 41.2491 77.2508 41.1187C77.108 40.9919 76.9234 40.9226 76.7325 40.924C76.5167 40.924 76.3441 40.9892 76.1931 41.1192C76.0421 41.2491 75.9558 41.4869 75.9558 41.7904C75.9558 42.0934 76.0421 42.3317 76.1931 42.4617C76.3441 42.5916 76.5167 42.6563 76.7109 42.6563C76.9271 42.6563 77.0997 42.5916 77.2508 42.4617C77.4018 42.3538 77.4665 42.1155 77.4665 41.7904Z" fill="#181716"/>
<path d="M24.0347 50.9731H25.1786V66.3267H22.5029V50.9731H24.0347Z" fill="#F8D200"/>
<path d="M24.0347 35.5542H25.1786V50.9729H22.5029V35.5542H24.0347Z" fill="#E3000B"/>
<path d="M15.5319 25.6364C16.3091 26.8706 16.9347 26.849 17.8629 26.849C17.0858 26.264 16.5896 25.5065 16.3522 25.1167L14.9278 22.821C14.795 22.0988 14.4224 21.4427 13.8702 20.9587C14.0649 20.8935 14.2159 20.8067 14.3017 20.742C13.374 20.742 12.4463 20.2659 11.9285 20.2659C11.6049 20.2659 11.3892 20.4606 11.3892 20.7204C11.4103 21.0019 11.7128 21.3049 12.2521 21.3049C12.3816 21.3049 12.5326 21.2833 12.7052 21.2617C13.0072 21.6736 13.2446 22.0414 13.2446 22.5827C13.2446 23.579 12.0364 24.3802 10.8273 24.3802H10.6336C10.5257 24.1419 10.159 23.7085 10.159 23.2328C10.159 22.4312 10.6767 21.7815 10.6767 20.9803C10.6767 20.4821 10.4394 20.1791 10.3531 20.0487C10.5041 19.9192 10.6552 19.7462 10.6983 19.6157C10.612 19.6594 10.5041 19.6594 10.3531 19.6594C9.77012 19.6594 9.29549 19.5074 8.84243 19.5074C8.58354 19.5074 8.51882 19.5942 8.51882 19.6594C8.51882 19.6809 8.51882 19.7241 8.54039 19.7241C8.44282 19.6854 8.34164 19.6565 8.23835 19.6378C8.09596 19.6115 7.95165 19.5969 7.80687 19.5941C7.24545 19.5941 7.05128 19.8324 7.05128 20.0276C7.05128 20.2007 7.18072 20.5037 7.33174 20.742C7.54749 20.6341 7.80638 20.5473 7.93582 20.5473C8.23835 20.5473 8.49724 20.8288 8.62669 21.175C8.43252 21.197 8.38937 21.197 8.1952 21.197C7.65585 21.197 7.2886 21.0019 7.2023 21.0019C7.2023 21.0019 7.18072 21.0019 7.18072 21.0234C7.18072 21.1102 7.33174 21.3049 7.63378 21.4133C8.04369 21.5653 8.62669 21.63 8.73456 21.63C8.73456 21.6515 8.62669 21.8462 8.51882 21.8683H8.4541C8.04369 21.7815 7.91474 21.7599 7.39647 21.5432C7.37489 21.5432 7.37489 21.5432 7.37489 21.5648C7.37489 21.7815 7.91425 22.2365 8.41095 22.4096C8.00055 22.9293 7.50434 23.4707 7.24545 24.2718H7.05128C5.84263 24.2718 4.63398 23.4922 4.63398 22.4743C4.63398 21.933 4.87179 21.5648 5.17334 21.1534C5.34642 21.175 5.49744 21.197 5.62689 21.197C6.16624 21.197 6.46877 20.8935 6.48986 20.6121C6.48986 20.3522 6.27412 20.1575 5.9505 20.1575C5.43272 20.1575 4.5266 20.6336 3.57733 20.6336C3.66314 20.6989 3.81416 20.7856 4.00882 20.8504C3.47147 21.3462 3.10182 21.9971 2.95119 22.7126L1.5268 25.0083C1.28948 25.3981 0.7717 26.1557 0.0166016 26.7406C0.944294 26.7406 1.54837 26.7622 2.34662 25.528L3.08064 24.3586C3.12378 24.5101 3.21008 24.6616 3.2748 24.8132L1.80726 27.152C1.56995 27.5418 1.07374 28.2783 0.297067 28.8843C1.22476 28.8843 1.82884 28.9059 2.62758 27.6717L3.87888 25.658C3.96518 25.7659 4.07305 25.8526 4.18092 25.961L2.41134 28.798C2.17403 29.1878 1.67782 29.9238 0.901146 30.5303C1.82884 30.5303 2.43292 30.5519 3.23166 29.3178L4.9576 26.5455C5.06547 26.6107 5.1954 26.6975 5.30327 26.7622L3.18851 30.1405C2.95119 30.5303 2.45449 31.2668 1.67831 31.8728C2.606 31.8728 3.21008 31.8944 4.00833 30.6603L6.18782 27.1741L6.57665 27.3035L4.1162 31.2447C3.87888 31.6345 3.3611 32.3926 2.606 32.9775C3.5337 32.9775 4.13777 32.9991 4.93651 31.7645L7.54749 27.5634C7.56906 27.5634 7.59064 27.5634 7.63378 27.585C7.69851 27.8233 7.76323 28.0184 7.76323 28.2346C7.76323 29.5556 6.90026 30.7255 5.8642 31.613C5.92893 31.6345 6.0368 31.6566 6.14467 31.6566C6.36041 31.6566 6.49035 31.6345 6.59822 31.6345C6.3609 32.1759 5.84312 32.8908 5.58374 33.259C5.20619 33.1917 4.82377 33.1555 4.4403 33.1506C4.11669 33.1506 4.07305 33.3453 4.07305 33.5184C4.07305 33.8219 4.22407 34.0817 4.37558 34.2117C4.4403 34.0597 4.56975 33.8439 5.1954 33.8439H5.26013C5.08753 34.0386 4.50503 34.5147 4.50503 34.8834C4.50503 35.1212 4.76392 35.511 5.13068 35.511C5.10911 35.4243 5.10911 35.359 5.10911 35.2943C5.10911 34.9913 5.368 34.6446 5.60531 34.3848V34.5368C5.60531 35.2512 5.67004 35.5763 6.1231 35.5763C6.33884 35.5763 6.49035 35.4458 6.55458 35.4243C6.25254 35.1428 6.25254 34.9482 6.25254 34.5368V34.1901C6.25254 34.1033 6.25254 33.9734 6.23146 33.8871C6.40405 33.865 6.46877 33.865 6.57665 33.865C6.57665 33.865 7.22387 33.8219 7.37489 34.147C7.54749 33.995 7.80638 33.7567 7.80638 33.5189C7.80638 33.3453 7.72008 33.1722 7.39647 33.1722C7.26702 33.1722 6.87868 33.259 6.55507 33.259C6.64137 33.0638 7.0297 32.4794 7.37489 32.0675C7.41804 32.2411 7.50434 32.4142 7.67693 32.5441C7.69851 32.2842 7.84953 31.4183 8.2815 30.9201C8.32465 31.2663 8.38937 31.613 8.38937 32.3274C8.38937 34.1033 7.95789 35.4243 7.05079 35.6626C7.15915 35.8577 7.41853 36.0524 7.67693 36.0524C8.00055 36.0524 8.19471 35.6846 8.3678 35.3159C8.4541 35.5758 8.73456 36.2254 8.99345 36.2254C9.25234 36.2254 9.51123 35.5758 9.61911 35.3159C9.7917 35.6626 9.98587 36.0524 10.31 36.0524C10.5689 36.0524 10.8062 35.8577 10.9356 35.6626C10.029 35.4243 9.59753 34.1033 9.59753 32.3279C9.59753 31.5914 9.66225 31.2447 9.7054 30.9201C10.1369 31.4183 10.2884 32.2626 10.31 32.5441C10.4826 32.3926 10.5689 32.2195 10.612 32.068C10.9572 32.4794 11.3455 33.0638 11.4318 33.259C11.1082 33.259 10.6983 33.1722 10.5904 33.1722C10.2668 33.1722 10.1805 33.3669 10.1805 33.5189C10.1805 33.7572 10.4394 33.995 10.612 34.1465C10.763 33.8219 11.4103 33.865 11.4103 33.865C11.5397 33.865 11.6044 33.865 11.7554 33.8866C11.7339 33.9734 11.7339 34.1033 11.7339 34.1901V34.5368C11.7339 34.9482 11.7123 35.1428 11.4318 35.4243C11.475 35.4679 11.626 35.5763 11.8633 35.5763C12.3169 35.5763 12.3816 35.2512 12.3816 34.5368V34.3848C12.5973 34.6231 12.8778 34.9913 12.8778 35.2943C12.8778 35.338 12.8778 35.4243 12.8562 35.511C13.2014 35.511 13.4819 35.1433 13.4819 34.8834C13.4819 34.5147 12.9209 34.0386 12.7268 33.8439H12.7915C13.4172 33.8439 13.5466 34.0597 13.6113 34.2117C13.7839 34.0817 13.9139 33.8219 13.9139 33.5189C13.9139 33.3453 13.8707 33.1506 13.5466 33.1506C13.223 33.1506 12.7268 33.1938 12.3816 33.2585C12.1227 32.8908 11.6044 32.1979 11.3671 31.6345C11.4534 31.6561 11.6044 31.6561 11.8207 31.6561C11.9285 31.6561 12.0364 31.6561 12.1011 31.613C11.0651 30.7255 10.2021 29.5556 10.2021 28.2346C10.2021 28.0184 10.2452 27.8233 10.3315 27.585C10.3531 27.585 10.3747 27.585 10.4178 27.5634L13.0288 31.7645C13.806 32.9991 14.4311 32.9775 15.3593 32.9775C14.6042 32.3926 14.0864 31.6345 13.8491 31.2447L11.324 27.3687L11.7123 27.2388L13.8918 30.725C14.669 31.9596 15.2946 31.9381 16.2228 31.9381C15.4456 31.3531 14.9494 30.5951 14.7121 30.2053L12.5973 26.8269C12.7268 26.7622 12.8346 26.6975 12.9425 26.6107L14.669 29.3825C15.4456 30.6166 16.0713 30.5951 16.9995 30.5951C16.2228 30.0106 15.7266 29.2526 15.4893 28.8627L13.7192 26.0257C13.8271 25.9394 13.9139 25.8311 14.0217 25.7227L15.273 27.737C16.0502 28.9711 16.6758 28.9495 17.604 28.9495C16.8269 28.3646 16.3307 27.6065 16.0933 27.2172L14.6258 24.8784C14.7121 24.7264 14.7768 24.5749 14.82 24.4234L15.5319 25.6364ZM3.81465 22.9504C3.81465 22.084 4.44079 21.3912 4.67762 21.1965C4.72126 21.2181 4.78549 21.2181 4.82913 21.2397C4.59181 21.5427 4.1819 22.0193 4.1819 22.669C4.1819 23.9468 5.54108 25.051 7.09492 25.051C7.07334 25.1588 7.07334 25.2677 7.07334 25.3976C7.07334 25.5923 7.09492 25.7654 7.09492 25.9174C5.36849 25.8953 3.81465 24.466 3.81465 22.9504ZM6.18831 33.4316L6.16722 33.4532H6.18831C6.68501 33.4532 6.92232 33.41 7.07334 33.3884C7.15964 33.3884 7.22436 33.3669 7.28909 33.3669C7.41853 33.3669 7.50483 33.3884 7.50483 33.5399C7.50483 33.6478 7.37538 33.8214 7.26751 33.9077C7.09492 33.7346 6.83603 33.713 6.46926 33.713C6.29667 33.713 6.08044 33.7346 5.95099 33.7562H5.90784V33.8214C5.92942 33.9293 5.95099 34.0597 5.95099 34.2333V34.5794C5.95099 34.9908 6.01571 35.2291 6.14516 35.4238C6.10201 35.4453 6.03729 35.4453 6.01571 35.4453C5.75682 35.4453 5.67053 35.3375 5.67053 34.5794C5.67053 34.4274 5.67053 34.2764 5.64895 34.1896V34.0597L5.6058 34.0813C5.21747 34.3843 4.82913 34.904 4.80756 35.2938C4.69969 35.2075 4.57024 35.0555 4.57024 34.9261C4.57024 34.7094 4.89385 34.3843 5.26062 34.0165L5.47636 33.7998L5.49793 33.7782L5.43321 33.7567C5.34691 33.7346 5.19589 33.6915 5.08802 33.6915C4.67811 33.6915 4.41922 33.7782 4.24614 33.9513C4.18141 33.8645 4.13826 33.6699 4.13826 33.5615C4.13826 33.4963 4.15984 33.4316 4.18141 33.4095C4.22456 33.3664 4.26771 33.3664 4.33243 33.3664H4.35401C4.80756 33.3664 5.36849 33.4532 5.58472 33.4747H5.6058C5.64895 33.4316 6.51241 32.2622 6.74973 31.6341C6.80918 31.6019 6.87642 31.5869 6.9439 31.5909C7.11649 31.5909 7.15964 31.6988 7.20279 31.8939C6.66343 32.5657 6.31775 33.0854 6.18831 33.4316ZM10.9145 31.5909C11.0008 31.5909 11.044 31.6125 11.1087 31.6341C11.346 32.2622 12.2095 33.4316 12.2526 33.4747V33.4963H12.2742C12.49 33.4532 13.0293 33.3669 13.5039 33.3669H13.5255C13.5687 33.3669 13.6334 33.3669 13.6765 33.41C13.6981 33.4316 13.7197 33.4968 13.7197 33.5615C13.7197 33.6694 13.6765 33.8645 13.6118 33.9513C13.4392 33.7782 13.1803 33.6915 12.7704 33.6915C12.641 33.6915 12.49 33.7346 12.4252 33.7567H12.4037L12.3605 33.7782L12.5978 34.0165C12.9646 34.3843 13.2882 34.7094 13.2882 34.9256C13.2882 35.0555 13.1588 35.2291 13.0509 35.2938C13.0293 34.904 12.641 34.3843 12.2526 34.0813L12.2311 34.0597V34.1896C12.2311 34.2764 12.2095 34.4279 12.2095 34.5794C12.2095 35.3154 12.1232 35.4453 11.8859 35.4453C11.8427 35.4453 11.778 35.4238 11.7559 35.4238C11.907 35.2507 11.9501 35.0124 11.9501 34.5794V34.2328C11.9501 34.0597 11.9722 33.9298 11.9722 33.8214V33.7567H11.929C11.7576 33.7295 11.5843 33.7149 11.4107 33.713C11.044 33.713 10.7851 33.7346 10.6125 33.9082C10.4831 33.8214 10.3752 33.6483 10.3752 33.5399C10.3752 33.3879 10.4615 33.3669 10.5909 33.3669C10.6557 33.3669 10.7204 33.3669 10.8067 33.3884C10.9577 33.41 11.195 33.4532 11.6912 33.4532H11.7128V33.4316C11.5833 33.0849 11.2382 32.5652 10.6988 31.8939C10.6988 31.7208 10.7419 31.5909 10.9145 31.5909ZM8.88607 21.3912C8.84292 21.1529 8.71348 20.9367 8.56246 20.7636C8.43301 20.6116 8.19569 20.4169 7.89316 20.4169C7.76372 20.4169 7.5264 20.4816 7.37538 20.5468C7.31066 20.4385 7.20279 20.2002 7.20279 20.0918C7.20279 19.984 7.39696 19.8751 7.74215 19.8751C8.54088 19.8751 8.99394 20.2218 8.99394 20.8283C9.03709 21.023 8.95079 21.2181 8.88607 21.3912ZM9.23126 20.6116C9.21218 20.4444 9.1447 20.2864 9.03709 20.157C9.03709 20.005 9.10181 19.8535 9.3607 19.9835C9.23126 20.1134 9.33913 20.3733 9.33913 20.3733C9.33913 20.3733 9.6196 20.2433 9.55487 20.0703C9.96527 20.1355 9.66274 20.6979 9.23126 20.6116ZM10.7851 25.8953C10.8067 25.7222 10.8067 25.5491 10.8067 25.3756C10.8067 25.2677 10.8067 25.1593 10.7851 25.0294C12.3174 25.0078 13.655 23.9031 13.655 22.6474C13.655 21.9977 13.2451 21.5211 13.0077 21.2181C13.0509 21.1965 13.1156 21.1965 13.1803 21.1745C13.3961 21.3696 14.0433 22.0624 14.0433 22.9288C14.0222 24.4665 12.5115 25.8737 10.7851 25.8953ZM25.1786 20.2659V35.6194H22.5029V20.2659H25.1786ZM30.8109 4.95553V0.949582H32.1054C32.6668 0.949582 32.8394 1.14424 32.9904 1.36047C33.1198 1.5772 33.1414 1.81549 33.1414 1.88022C33.1414 2.37839 32.9688 2.70298 32.451 2.83292V2.85498C33.012 2.9197 33.2709 3.26636 33.2709 3.80768C33.2709 4.82559 32.5373 4.93346 32.0627 4.93346H30.8109V4.95553ZM31.3287 2.63826H32.0627C32.451 2.63826 32.6452 2.37839 32.6452 2.01064C32.6452 1.68556 32.451 1.40411 32.0411 1.40411H31.3287V2.63826ZM31.3287 4.50051H32.0411C32.5805 4.50051 32.7747 4.1107 32.7747 3.82925C32.7747 3.20164 32.3863 3.09279 31.868 3.09279H31.3287V4.50051ZM34.1338 4.95553V0.949582H36.1839V1.40411H34.63V2.68141H36.0765V3.11485H34.63V4.50051H36.2054V4.95553H34.1338ZM37.7814 0.949582H38.4286L39.723 4.93346H39.1621L38.8816 3.98076H37.3494L37.0473 4.93346H36.5296L37.7814 0.949582ZM38.0834 1.4252L37.4577 3.5483H38.7306L38.0834 1.4252ZM40.2408 0.949582H40.7591V3.50417C40.7591 4.37057 41.018 4.60887 41.5142 4.60887C42.0104 4.60887 42.2693 4.39215 42.2693 3.50466V0.949092H42.7876V3.4826C42.7876 4.5873 42.3772 5.02025 41.5358 5.02025C40.6944 5.02025 40.284 4.5873 40.284 3.4826L40.2408 0.949582ZM43.5863 4.95553V0.949582H45.55V1.40411H44.1036V2.68141H45.4853V3.11485H44.1041V4.95553H43.5863ZM48.3116 0.949582V1.40411H47.2544V4.95553H46.7582V1.40411H45.7006V0.949092H48.312L48.3116 0.949582ZM49.326 3.11485V4.95553H48.8082V0.949582H50.1895C50.9014 0.949582 51.1388 1.44726 51.1388 1.94494C51.1388 2.42153 50.8799 2.76819 50.4052 2.85498V2.87656C50.8583 2.94128 51.0309 3.11485 51.0525 3.91604C51.0525 4.08913 51.1172 4.71723 51.1819 4.95553H50.6425C50.4915 4.67408 50.5347 4.15434 50.4915 3.6346C50.4484 3.158 50.06 3.13643 49.8875 3.13643L49.326 3.11485ZM49.326 2.65983H50.0816C50.4484 2.65983 50.621 2.35681 50.621 1.98858C50.621 1.70713 50.47 1.38205 50.0816 1.38205H49.326V2.65983ZM52.8005 0.949582H53.4482L54.7431 4.93346H54.1817L53.9012 3.98076H52.369L52.0669 4.93346H51.5492L52.8005 0.949582ZM53.103 1.4252L52.4769 3.54781H53.7502L53.103 1.4252ZM57.181 2.01015C57.181 1.53356 56.9869 1.29526 56.4691 1.29526C56.3181 1.29526 55.7351 1.31733 55.7351 2.16166V3.50417C55.7351 4.37057 55.9944 4.60887 56.4691 4.60887C56.8358 4.60887 57.0732 4.50051 57.181 4.4353V3.2443H56.4475V2.78977H57.6993V4.73881C57.3286 4.94054 56.9127 5.04481 56.4906 5.04183C55.6488 5.04183 55.2388 4.60887 55.2388 3.50417V2.18324C55.2388 1.38205 55.6488 0.883879 56.4906 0.883879C57.332 0.883879 57.764 1.18739 57.7209 2.03173H57.181V2.01015ZM60.8717 0.949582V1.40411H59.8141V4.95553H59.3178V1.40411H58.2602V0.949092L60.8717 0.949582ZM64.0004 4.95553H63.3964L62.2309 0.949582H62.7918L63.6984 4.45736H63.72L64.6477 0.949092H65.1659L64.0004 4.95553ZM65.6622 3.4826V2.16166C65.6622 1.36047 66.0721 0.862305 66.9139 0.862305C67.7553 0.862305 68.1653 1.36047 68.1653 2.16166V3.4826C68.1653 4.5873 67.7553 5.02025 66.9139 5.02025C66.0721 5.02025 65.6622 4.5873 65.6622 3.4826ZM67.6475 3.50417V2.16166C67.6475 1.31733 67.065 1.29575 66.9139 1.29575C66.7629 1.29575 66.1799 1.31733 66.1799 2.16166V3.50417C66.1799 4.37057 66.4388 4.60887 66.9139 4.60887C67.3886 4.60887 67.6475 4.37057 67.6475 3.50417ZM69.5249 4.95553H69.0503V0.949582H69.8706L70.8846 4.30585L71.8991 0.949092H72.7405V4.95504H72.2227V1.4046L71.1003 4.95602H70.6257L69.5465 1.4046H69.5249V4.95553Z" fill="#181716"/>
</g>
<defs>
<clipPath id="clip0_845_28926">
<rect width="93.1616" height="66.1937" fill="white" transform="translate(0 0.439453)"/>
</clipPath>
</defs>
</svg>
